<svg width="128" height="28" viewBox="0 0 128 28" fill="none" xmlns="http://www.w3.org/2000/svg">
<path d="M7.56 22.85C6.52515 22.8554 5.4981 22.6707 4.53 22.305C3.61255 21.9665 2.80273 21.3881 2.185 20.63C1.56496 19.8313 1.2447 18.8405 1.28 17.83C1.22803 17.0008 1.46089 16.1787 1.94 15.5C2.35752 14.9538 2.93122 14.5475 3.585 14.335C4.20112 14.1209 4.84779 14.0078 5.5 14C4.95386 14.5623 4.50446 15.2111 4.17 15.92C3.88244 16.5093 3.72715 17.1544 3.715 17.81C3.71841 18.4265 3.89139 19.0302 4.215 19.555C4.56284 20.1192 5.06166 20.5747 5.655 20.87C6.39877 21.2297 7.21943 21.4013 8.045 21.37C8.86281 21.3695 9.67452 21.2292 10.445 20.955C11.1773 20.7085 11.837 20.2842 12.365 19.72C12.8723 19.158 13.1428 18.4217 13.12 17.665C13.1342 16.965 12.9064 16.2815 12.475 15.73C12.0061 15.1564 11.4451 14.6647 10.815 14.275C10.135 13.845 9.425 13.435 8.675 13.045C7.92681 12.67 7.20063 12.2527 6.5 11.795C5.8551 11.3697 5.29267 10.831 4.84 10.205C4.39988 9.57045 4.17391 8.81194 4.195 8.04C4.21428 7.2094 4.40672 6.39197 4.76 5.64C5.15422 4.75432 5.69705 3.94261 6.365 3.24C7.07269 2.47596 7.92165 1.85621 8.865 1.415C9.89605 0.940148 11.0199 0.70102 12.155 0.714996C13.42 0.714996 14.305 0.979996 14.82 1.51C15.0792 1.7896 15.2802 2.11788 15.4116 2.47579C15.5429 2.8337 15.6018 3.21412 15.585 3.595C15.5748 4.33192 15.4552 5.06324 15.23 5.765C14.9982 6.51607 14.709 7.24822 14.365 7.95499C14.0627 8.56688 13.729 9.16268 13.365 9.73999C13.0178 9.67392 12.7007 9.49875 12.46 9.23999C12.2497 8.98094 12.1429 8.6532 12.16 8.31999C12.1709 7.8804 12.2502 7.44519 12.395 7.03C12.55 6.53 12.73 6.06499 12.94 5.52999C13.15 4.99499 13.335 4.52999 13.49 4.02999C13.6326 3.61939 13.7119 3.18946 13.725 2.755C13.7333 2.61424 13.7118 2.47332 13.6618 2.34148C13.6118 2.20964 13.5345 2.08986 13.435 1.99C13.0914 1.76343 12.6786 1.666 12.27 1.715C11.4299 1.70462 10.6003 1.90214 9.855 2.29C8.47106 3.01813 7.36311 4.17875 6.7 5.595C6.43174 6.14794 6.28187 6.7508 6.26 7.36499C6.24858 7.98717 6.4758 8.5901 6.895 9.04999C7.36897 9.5569 7.91887 9.98704 8.525 10.325C9.195 10.71 9.895 11.095 10.635 11.48C11.3703 11.8564 12.0772 12.2858 12.75 12.765C13.4236 13.2262 13.9996 13.8158 14.445 14.5C14.8838 15.2254 15.1027 16.0626 15.075 16.91C15.0901 17.7857 14.869 18.6493 14.435 19.41C13.9972 20.1481 13.4013 20.7799 12.69 21.26C11.9476 21.7705 11.1292 22.1603 10.265 22.415C9.38935 22.691 8.47805 22.8376 7.56 22.85Z" fill="black"/>
<path d="M18.535 21.345C18.2057 21.3823 17.8725 21.3261 17.5736 21.1828C17.2747 21.0396 17.0222 20.8151 16.845 20.535C16.5447 19.9937 16.3897 19.3839 16.395 18.765C16.3979 18.1547 16.4906 17.5483 16.67 16.965C16.8456 16.3652 17.0976 15.7904 17.42 15.255C17.7065 14.7786 18.0717 14.3543 18.5 14C18.8275 13.6985 19.2504 13.5215 19.695 13.5C19.8488 13.5025 20.0017 13.5244 20.15 13.565C20.2907 13.5959 20.4192 13.6671 20.52 13.77C20.2705 14.0861 20.0449 14.4204 19.845 14.77C19.6111 15.1828 19.4008 15.6085 19.215 16.045C19.0262 16.4846 18.8757 16.9396 18.765 17.405C18.6611 17.8171 18.6057 18.24 18.6 18.665C18.5854 18.9796 18.6562 19.2923 18.805 19.57C18.8801 19.6918 18.9878 19.7901 19.116 19.8537C19.2441 19.9174 19.3876 19.9438 19.53 19.93C20.0007 19.8777 20.4405 19.6701 20.78 19.34C21.2774 18.9353 21.7376 18.4868 22.155 18C21.6084 17.522 21.1761 16.9274 20.89 16.26C20.6183 15.5279 20.4893 14.7506 20.51 13.97C20.5238 13.5179 20.6204 13.0722 20.795 12.655C20.9939 12.1536 21.3154 11.71 21.73 11.365C22.2245 10.9774 22.8426 10.7821 23.47 10.815C23.7795 10.7822 24.0923 10.8252 24.3814 10.9402C24.6706 11.0551 24.9275 11.2387 25.13 11.475C25.4624 11.9265 25.638 12.4744 25.63 13.035C25.6042 13.8229 25.4224 14.5978 25.095 15.315C24.7441 16.1474 24.3173 16.9458 23.82 17.7C24.0586 17.8141 24.3206 17.8706 24.585 17.865C24.9267 17.8542 25.2643 17.7883 25.585 17.67C25.9968 17.5291 26.3785 17.312 26.71 17.03C27.0968 16.6988 27.3972 16.2783 27.585 15.805L28.085 16.165C27.7679 16.9912 27.2084 17.7023 26.48 18.205C25.8973 18.6083 25.2086 18.8309 24.5 18.845C24.2602 18.8455 24.0208 18.8237 23.785 18.78C23.5625 18.7362 23.3436 18.676 23.13 18.6C22.5065 19.3241 21.7903 19.9629 21 20.5C20.2857 21.0301 19.4244 21.3254 18.535 21.345ZM22.865 17.12C23.3125 16.4738 23.6928 15.7835 24 15.06C24.2912 14.4217 24.4511 13.7313 24.47 13.03C24.4941 12.7126 24.4264 12.395 24.275 12.115C24.213 12.0205 24.1272 11.944 24.0263 11.8931C23.9254 11.8422 23.8129 11.8187 23.7 11.825C23.35 11.825 22.995 12.07 22.63 12.565C22.2484 13.1102 22.0553 13.765 22.08 14.43C22.0933 14.9031 22.1622 15.3729 22.285 15.83C22.3827 16.2969 22.5806 16.737 22.865 17.12Z" fill="black"/>
<path d="M29 21.29C28.6969 21.2859 28.3999 21.2042 28.1374 21.0528C27.8748 20.9014 27.6554 20.6853 27.5 20.425C27.1005 19.8357 26.8943 19.1367 26.91 18.425C26.9223 17.8143 27.0045 17.207 27.155 16.615C27.3192 15.9232 27.5348 15.2447 27.8 14.585C28.022 14.0116 28.2982 13.4608 28.625 12.94C28.905 12.5 29.165 12.28 29.405 12.28C29.6167 12.3101 29.8196 12.3851 30 12.5C30.2569 12.6309 30.4929 12.7994 30.7 13C30.423 13.4292 30.179 13.8788 29.97 14.345C29.676 14.9755 29.4254 15.6254 29.22 16.29C29.014 16.9011 28.9027 17.5402 28.89 18.185C28.89 18.255 28.89 18.43 28.93 18.685C28.9538 18.9515 29.0231 19.2119 29.135 19.455C29.1823 19.5664 29.2631 19.6603 29.3661 19.7239C29.469 19.7875 29.5892 19.8176 29.71 19.81C30.0946 19.7759 30.452 19.5972 30.71 19.31C31.115 18.9111 31.4786 18.4722 31.795 18C32.1717 17.46 32.5367 16.88 32.89 16.26C33.25 15.635 33.57 15.035 33.85 14.45C34.13 13.865 34.35 13.37 34.55 12.95C34.7682 12.9805 34.9838 13.0272 35.195 13.09C35.4398 13.1539 35.6752 13.2497 35.895 13.375C35.9857 13.4232 36.0616 13.4952 36.1145 13.5833C36.1674 13.6714 36.1952 13.7723 36.195 13.875C36.1316 14.1067 36.0444 14.3312 35.935 14.545C35.765 14.94 35.56 15.41 35.335 15.96C35.1051 16.5111 34.9032 17.0735 34.73 17.645C34.5719 18.1299 34.4843 18.6351 34.47 19.145C34.4647 19.3772 34.5161 19.6072 34.62 19.815C34.6799 19.9151 34.7675 19.9957 34.8722 20.0471C34.9768 20.0986 35.0942 20.1187 35.21 20.105C35.7048 20.0716 36.18 19.8982 36.58 19.605C37.195 19.1834 37.7486 18.6786 38.225 18.105C38.8268 17.3879 39.3312 16.5943 39.725 15.745L40.135 16.075C39.7509 17.0347 39.225 17.9313 38.575 18.735C37.9993 19.4651 37.3025 20.0908 36.515 20.585C35.8789 21.0058 35.1375 21.2397 34.375 21.26C33.9448 21.2929 33.5186 21.1586 33.185 20.885C32.9123 20.6276 32.7255 20.2924 32.65 19.925C32.5601 19.534 32.5049 19.1357 32.485 18.735V18.185C32.1772 18.6822 31.8434 19.1629 31.485 19.625C31.1484 20.0618 30.7568 20.4534 30.32 20.79C29.949 21.1008 29.4838 21.277 29 21.29Z" fill="black"/>
<path d="M48.265 21C47.6775 21.0499 47.0935 20.8707 46.635 20.5C46.4505 20.3258 46.3048 20.1146 46.2075 19.8802C46.1101 19.6459 46.0633 19.3937 46.07 19.14C46.0749 18.744 46.1407 18.351 46.265 17.975L46.65 16.725C46.7714 16.3347 46.8354 15.9287 46.84 15.52C46.8589 15.3679 46.8425 15.2135 46.7923 15.0687C46.742 14.9239 46.6591 14.7926 46.55 14.685C46.3614 14.5301 46.124 14.4469 45.88 14.45C45.2591 14.478 44.6656 14.7139 44.195 15.12C43.5663 15.6081 42.9974 16.1686 42.5 16.79C41.96 17.465 41.455 18.17 41 18.9C40.545 19.63 40.115 20.29 39.77 20.9C39.4288 20.9025 39.09 20.8432 38.77 20.725C38.4569 20.5881 38.1896 20.3643 38 20.08C38.0908 19.7965 38.1959 19.5178 38.315 19.245C38.51 18.78 38.725 18.22 38.96 17.57C39.2057 16.9015 39.416 16.2206 39.59 15.53C39.7633 14.8941 39.8557 14.239 39.865 13.58C40.0372 13.4031 40.2364 13.2546 40.455 13.14C40.7102 12.9971 40.9975 12.9214 41.29 12.92C41.93 12.92 42.25 13.195 42.25 13.745C42.2375 14.0728 42.1974 14.3989 42.13 14.72C42.045 15.15 41.93 15.635 41.785 16.185C42.2602 15.543 42.7833 14.9379 43.35 14.375C43.8714 13.8429 44.4596 13.3807 45.1 13C45.6577 12.6595 46.2966 12.4747 46.95 12.465C47.2833 12.4416 47.6173 12.5021 47.9212 12.641C48.2252 12.7798 48.4895 12.9927 48.69 13.26C49.0549 13.767 49.2524 14.3753 49.255 15C49.2574 15.5257 49.1642 16.0476 48.98 16.54C48.795 17.015 48.62 17.46 48.445 17.88C48.2778 18.2705 48.1895 18.6902 48.185 19.115C48.1723 19.227 48.1841 19.3404 48.2195 19.4475C48.2549 19.5545 48.3131 19.6526 48.39 19.735C48.5135 19.8464 48.6736 19.9087 48.84 19.91C49.3601 19.8757 49.8494 19.6515 50.215 19.28C50.7347 18.8064 51.1903 18.2668 51.57 17.675C51.9892 17.0453 52.3699 16.3907 52.71 15.715L53.175 16.1C52.8116 16.9535 52.3768 17.7748 51.875 18.555C51.4429 19.2382 50.8946 19.8406 50.255 20.335C49.6843 20.7723 48.9839 21.0063 48.265 21Z" fill="black"/>
<path d="M53.89 21.29C53.5225 21.2846 53.1614 21.1939 52.835 21.025C52.4651 20.8448 52.152 20.5663 51.93 20.22C51.6664 19.8019 51.5356 19.3138 51.555 18.82C51.5763 18.1221 51.7255 17.4341 51.995 16.79C52.3102 15.9987 52.7109 15.2442 53.19 14.54C53.6926 13.7933 54.2817 13.1085 54.945 12.5C55.5795 11.9029 56.2949 11.3979 57.07 11C57.7711 10.6282 58.5515 10.431 59.345 10.425C59.6906 10.4038 60.0356 10.4745 60.345 10.63C60.461 10.6971 60.5559 10.7956 60.6186 10.9141C60.6814 11.0325 60.7096 11.1663 60.7 11.3C60.6996 11.4073 60.681 11.5138 60.645 11.615C60.597 11.7513 60.4986 11.864 60.37 11.93C60.2774 11.8075 60.1414 11.7252 59.99 11.7C59.8002 11.6534 59.6055 11.6299 59.41 11.63C58.7993 11.6305 58.2013 11.8038 57.685 12.13C57.1209 12.4833 56.6149 12.9218 56.185 13.43C55.7267 13.9628 55.3261 14.5427 54.99 15.16C54.6756 15.7332 54.4145 16.334 54.21 16.955C54.0445 17.4386 53.9518 17.9441 53.935 18.455C53.9209 18.7493 53.9977 19.0408 54.155 19.29C54.229 19.3944 54.3285 19.4782 54.444 19.5334C54.5595 19.5885 54.6873 19.6132 54.815 19.605C55.4849 19.5255 56.1085 19.2225 56.585 18.745C57.4014 18.0141 58.1116 17.1726 58.695 16.245C59.489 15.0188 60.1462 13.7093 60.655 12.34C61.0617 11.2933 61.4833 10.2283 61.92 9.14498C62.355 8.05499 62.795 7.00998 63.235 5.99998C63.675 4.98998 64.11 4.09998 64.54 3.31498C64.8874 2.64953 65.2994 2.01984 65.77 1.43499C65.8916 1.2487 66.0511 1.09009 66.238 0.969492C66.4249 0.848889 66.6352 0.768988 66.855 0.734985C66.9555 0.73579 67.0547 0.757041 67.1467 0.797442C67.2387 0.837844 67.3214 0.896551 67.39 0.969986C67.4674 1.04708 67.5281 1.1392 67.5686 1.24067C67.609 1.34214 67.6282 1.45081 67.625 1.55999C67.5667 2.08369 67.4125 2.59217 67.17 3.05999C66.87 3.74332 66.4867 4.56165 66.02 5.51499L64.52 8.59998C63.98 9.70498 63.48 10.84 63.02 12C62.5681 13.1192 62.1841 14.2646 61.87 15.43C61.5816 16.4608 61.4287 17.5247 61.415 18.595C61.3944 18.8987 61.437 19.2035 61.54 19.49C61.5812 19.5652 61.6432 19.6269 61.7186 19.6677C61.794 19.7085 61.8795 19.7267 61.965 19.72C62.448 19.6939 62.914 19.5328 63.31 19.255C63.8786 18.8737 64.3846 18.4064 64.81 17.87C65.3621 17.192 65.8305 16.45 66.205 15.66L66.73 16.1C66.3541 17.0594 65.8349 17.9563 65.19 18.76C64.6345 19.4731 63.9575 20.0824 63.19 20.56C62.5591 20.9644 61.8292 21.1876 61.08 21.205C60.7742 21.237 60.4655 21.185 60.1871 21.0546C59.9087 20.9242 59.6711 20.7204 59.5 20.465C59.1977 19.9596 59.0451 19.3787 59.06 18.79C59.0613 18.492 59.0847 18.1945 59.13 17.9C59.175 17.6 59.225 17.3 59.28 17.01C58.7452 17.7945 58.1447 18.5321 57.485 19.215C56.9328 19.7917 56.3095 20.2957 55.63 20.715C55.1151 21.0654 54.5123 21.2646 53.89 21.29Z" fill="black"/>
<path d="M75.425 22.685C74.5569 22.7355 73.6918 22.5451 72.925 22.135C72.6356 21.9342 72.403 21.6621 72.2497 21.345C72.0964 21.0278 72.0276 20.6765 72.05 20.325C72.05 20.145 72.15 20.05 72.35 20.05C72.6055 20.0633 72.8588 20.1053 73.105 20.175C73.7444 20.2799 74.3925 20.3218 75.04 20.3C76.5349 20.3164 78.0262 20.1484 79.48 19.8C80.7048 19.5088 81.8829 19.0476 82.98 18.43C83.8761 17.9419 84.665 17.2788 85.3 16.48C85.8173 15.839 86.1059 15.0436 86.12 14.22C86.1388 13.9062 86.0936 13.5919 85.987 13.2962C85.8804 13.0005 85.7147 12.7296 85.5 12.5C85.021 12.0362 84.4382 11.6933 83.8 11.5C83.0527 11.264 82.2811 11.113 81.5 11.05C80.665 10.975 79.845 10.94 79.045 10.94C78.695 10.94 78.35 10.94 78 10.94C77.65 10.94 77.325 10.94 77 10.94C76.5933 12.33 76.2 13.7667 75.82 15.25C75.44 16.7333 75.0367 18.1867 74.61 19.61C74.0998 19.6223 73.5995 19.4678 73.185 19.17C73.0034 19.0557 72.8531 18.8981 72.7475 18.7114C72.6419 18.5246 72.5843 18.3145 72.58 18.1C72.5887 17.8819 72.6222 17.6655 72.68 17.455C72.7588 17.1354 72.854 16.82 72.965 16.51C73.075 16.165 73.265 15.585 73.53 14.78C73.795 13.975 74.11 13.025 74.475 11.93C74.84 10.835 75.245 9.67501 75.695 8.46001C76.145 7.24501 76.61 6.05001 77.095 4.88001C77.58 3.71001 78.06 2.66001 78.535 1.72501C77.9139 1.85544 77.3075 2.04808 76.725 2.30001C76.3403 2.47393 75.9648 2.66752 75.6 2.88001C75.4134 3.01227 75.197 3.09642 74.97 3.12501C74.8126 3.1052 74.6647 3.03907 74.545 2.93501C74.3719 2.8069 74.2142 2.65926 74.075 2.49501C73.9588 2.37579 73.8865 2.22066 73.87 2.05501C74.8733 1.65218 75.8963 1.30007 76.935 1.00001C78.1869 0.665693 79.4795 0.509159 80.775 0.535006C81.4991 0.539582 82.2222 0.589681 82.94 0.685007C83.7144 0.781303 84.4717 0.984922 85.19 1.29001C85.884 1.57959 86.493 2.04066 86.96 2.63001C87.4555 3.31959 87.7023 4.15692 87.66 5.00501C87.6807 5.71927 87.5079 6.42585 87.16 7.05001C86.8177 7.63892 86.3562 8.14984 85.805 8.55001C85.2274 8.95973 84.6009 9.29566 83.94 9.55001C83.2876 9.80699 82.6196 10.0224 81.94 10.195C82.9137 10.3004 83.8689 10.5358 84.78 10.895C85.438 11.1562 86.0454 11.5301 86.575 12C86.979 12.3645 87.3055 12.8067 87.535 13.3C87.7182 13.7111 87.8168 14.155 87.825 14.605C87.8386 15.6388 87.5406 16.6528 86.97 17.515C86.3775 18.4011 85.6184 19.1636 84.735 19.76C83.7876 20.4145 82.7654 20.9533 81.69 21.365C80.6195 21.7938 79.5137 22.1284 78.385 22.365C77.4112 22.5683 76.4198 22.6755 75.425 22.685ZM77.26 9.93001C78.268 9.89419 79.2714 9.77546 80.26 9.57501C81.1862 9.39202 82.0852 9.09124 82.935 8.68001C83.6827 8.32663 84.3357 7.80049 84.84 7.14501C85.3322 6.46448 85.5838 5.6394 85.555 4.80001C85.5781 4.43097 85.5268 4.06106 85.4039 3.7123C85.2811 3.36354 85.0893 3.04308 84.84 2.77001C84.3259 2.26636 83.679 1.9195 82.975 1.77001C82.1654 1.58116 81.3363 1.48885 80.505 1.49501H80.395C79.7461 2.79189 79.1784 4.12779 78.695 5.49501C78.1983 6.93501 77.72 8.41334 77.26 9.93001Z" fill="black"/>
<path d="M90.045 28C89.5855 27.9986 89.1385 27.8496 88.77 27.575C88.5669 27.4147 88.4067 27.2066 88.3038 26.9693C88.2008 26.732 88.1583 26.4728 88.18 26.215C88.1695 25.6494 88.3452 25.096 88.68 24.64C89.0563 24.1407 89.5104 23.7051 90.025 23.35C90.5861 22.9476 91.1779 22.5898 91.795 22.28C92.425 21.96 93.03 21.66 93.615 21.39C93.82 20.855 94.045 20.185 94.29 19.39C94.535 18.595 94.75 17.825 94.935 17.13C94.3975 17.8795 93.7916 18.5775 93.125 19.215C92.7243 19.6358 92.2071 19.9273 91.6395 20.052C91.072 20.1768 90.4802 20.1291 89.94 19.915C89.571 19.7724 89.2526 19.5236 89.025 19.2C88.7585 18.7983 88.6288 18.3213 88.655 17.84C88.6699 17.2565 88.7572 16.677 88.915 16.115C89.086 15.4338 89.3049 14.7654 89.57 14.115C89.7921 13.5469 90.0737 13.0039 90.41 12.495C90.7 12.07 90.955 11.85 91.175 11.85C91.3475 11.8631 91.5166 11.9054 91.675 11.975C91.8921 12.0642 92.0998 12.1748 92.295 12.305C92.4687 12.4103 92.6023 12.5704 92.675 12.76C92.466 13.0585 92.2837 13.3747 92.13 13.705C91.9122 14.1509 91.7185 14.6082 91.55 15.075C91.37 15.575 91.22 16.075 91.1 16.545C90.9904 16.9462 90.93 17.3592 90.92 17.775C90.9135 18.0235 90.9702 18.2695 91.085 18.49C91.1511 18.5943 91.2453 18.6778 91.3567 18.7309C91.4682 18.784 91.5924 18.8045 91.715 18.79C92.1754 18.7658 92.6149 18.59 92.965 18.29C93.4364 17.9134 93.8596 17.4801 94.225 17C94.6292 16.504 95.0016 15.983 95.34 15.44C95.3876 15.2407 95.4226 15.0387 95.445 14.835C95.4878 14.547 95.553 14.2628 95.64 13.985C95.7389 13.6669 95.91 13.376 96.14 13.135C96.2646 13.0035 96.4164 12.9009 96.5848 12.8344C96.7533 12.7679 96.9342 12.7391 97.115 12.75C97.2521 12.7504 97.3889 12.7587 97.525 12.775L97.99 12.86C97.9458 13.4028 97.8503 13.9402 97.705 14.465C97.5117 15.2617 97.26 16.18 96.95 17.22C96.64 18.265 96.29 19.305 95.905 20.35C96.7836 19.9667 97.5942 19.4432 98.305 18.8C99.2155 17.952 99.9025 16.8923 100.305 15.715L100.775 16.095C100.517 16.9747 100.083 17.7929 99.5 18.5C98.9584 19.1614 98.3254 19.7422 97.62 20.225C96.9558 20.6846 96.2493 21.0797 95.51 21.405C95.0443 22.5342 94.5083 23.633 93.905 24.695C93.4201 25.5817 92.8049 26.3907 92.08 27.095C91.5429 27.6466 90.8143 27.9706 90.045 28ZM89.77 27C90.115 27 90.6 26.635 91.225 25.9C92.0056 24.897 92.6418 23.7896 93.115 22.61C92.504 22.9159 91.9129 23.2599 91.345 23.64C90.7976 23.9943 90.2941 24.4123 89.845 24.885C89.4812 25.2407 89.2666 25.7217 89.245 26.23C89.2473 26.4035 89.2883 26.5744 89.365 26.73C89.4016 26.805 89.4596 26.8673 89.5317 26.9092C89.6038 26.951 89.6868 26.9705 89.77 26.965V27Z" fill="black"/>
<path d="M102.195 21.56C101.839 21.5754 101.483 21.5202 101.148 21.3975C100.814 21.2748 100.507 21.087 100.245 20.845C99.9799 20.5539 99.7771 20.2117 99.649 19.8394C99.5208 19.4671 99.4702 19.0726 99.5 18.68C99.5306 17.7331 99.6733 16.7933 99.925 15.88C100.223 14.7105 100.582 13.5573 101 12.425C100.87 12.39 100.72 12.36 100.55 12.33C100.378 12.2992 100.21 12.2488 100.05 12.18V11.33C100.345 11.365 100.585 11.395 100.775 11.41L101.365 11.465C101.748 10.495 102.165 9.55832 102.615 8.65499C103.065 7.74999 103.51 6.93999 103.96 6.22499C104.324 5.61953 104.751 5.05466 105.235 4.53999C105.499 4.2043 105.882 3.98386 106.305 3.92499C106.491 3.93242 106.668 4.005 106.805 4.12999C106.889 4.2026 106.955 4.29371 106.997 4.3961C107.04 4.4985 107.058 4.60938 107.05 4.71999C106.99 5.27559 106.802 5.80964 106.5 6.27999C106.127 6.94665 105.665 7.73832 105.115 8.65499C104.565 9.57165 104.035 10.5367 103.525 11.55H104.375C105.18 11.55 105.905 11.55 106.555 11.505C107.205 11.46 107.865 11.43 108.555 11.355V12.26C107.555 12.355 106.625 12.425 105.785 12.48C104.945 12.535 104.135 12.57 103.37 12.59H103.04C102.656 13.4889 102.322 14.4087 102.04 15.345C101.764 16.2391 101.62 17.1691 101.615 18.105C101.567 18.6589 101.691 19.2142 101.97 19.695C102.107 19.8561 102.281 19.9823 102.476 20.0632C102.672 20.144 102.884 20.1772 103.095 20.16C104.152 20.1003 105.151 19.6577 105.905 18.915C106.953 17.9598 107.802 16.808 108.405 15.525L108.79 15.8C108.331 16.8516 107.736 17.8384 107.02 18.735C106.383 19.553 105.608 20.2535 104.73 20.805C103.972 21.2893 103.094 21.551 102.195 21.56Z" fill="black"/>
<path d="M110.78 21.5C110.29 21.5321 109.798 21.465 109.334 21.3026C108.87 21.1403 108.443 20.886 108.08 20.555C107.768 20.2447 107.523 19.874 107.36 19.4656C107.197 19.0572 107.118 18.6197 107.13 18.18C107.151 17.2906 107.363 16.416 107.75 15.615C108.175 14.6881 108.734 13.8289 109.41 13.065C110.068 12.2993 110.847 11.6458 111.715 11.13C112.468 10.6653 113.331 10.4098 114.215 10.39C114.693 10.3915 115.162 10.5191 115.575 10.76C115.806 10.9232 115.988 11.1463 116.102 11.4053C116.216 11.6644 116.256 11.9495 116.22 12.23C116.219 12.9245 116.008 13.6023 115.615 14.175C115.185 14.8141 114.636 15.3656 114 15.8C113.309 16.2842 112.558 16.6758 111.765 16.965C110.974 17.2614 110.149 17.4595 109.31 17.555C109.31 17.63 109.28 17.705 109.27 17.79C109.263 17.9216 109.263 18.0534 109.27 18.185C109.275 18.3524 109.29 18.5194 109.315 18.685C109.35 18.9396 109.428 19.1865 109.545 19.415C109.691 19.6872 109.909 19.9139 110.175 20.07C110.545 20.2728 110.964 20.368 111.385 20.345C112.199 20.332 112.996 20.1099 113.7 19.7C114.515 19.2433 115.255 18.6649 115.895 17.985C116.58 17.2778 117.157 16.4743 117.61 15.6L118.16 16.04C117.689 17.1001 117.043 18.0737 116.25 18.92C115.514 19.7101 114.642 20.3605 113.675 20.84C112.773 21.2772 111.783 21.5029 110.78 21.5ZM109.63 16.535C110.183 16.4547 110.72 16.2858 111.22 16.035C111.818 15.7536 112.383 15.4064 112.905 15C113.416 14.609 113.865 14.1419 114.235 13.615C114.556 13.1707 114.73 12.6379 114.735 12.09C114.751 11.9452 114.713 11.7996 114.63 11.68C114.529 11.5979 114.4 11.5584 114.27 11.57C113.796 11.5867 113.338 11.7452 112.955 12.025C112.458 12.3592 112.006 12.7558 111.61 13.205C111.164 13.6978 110.769 14.2338 110.43 14.805C110.109 15.3569 109.842 15.9378 109.63 16.54V16.535Z" fill="black"/>
<path d="M120.16 21.695C119.384 21.7323 118.615 21.5374 117.95 21.135C117.419 20.7908 117.004 20.2941 116.76 19.71C116.526 19.1494 116.405 18.5477 116.405 17.94C116.384 17.5175 116.458 17.0956 116.62 16.705C116.74 16.4431 116.93 16.2197 117.17 16.06C117.367 15.9364 117.574 15.8309 117.79 15.745C117.946 15.6906 118.09 15.6075 118.215 15.5C118.714 14.9722 119.185 14.4181 119.625 13.84C120.121 13.1903 120.54 12.4857 120.875 11.74V11.465C120.826 10.9218 120.956 10.3775 121.245 9.91502C121.345 9.77829 121.475 9.6665 121.625 9.58842C121.775 9.51035 121.941 9.46811 122.11 9.46501C122.2 9.45414 122.292 9.46329 122.378 9.4918C122.465 9.52032 122.544 9.5675 122.61 9.63001C122.709 9.73393 122.77 9.86752 122.785 10.01C122.783 10.1409 122.761 10.2706 122.72 10.395C122.666 10.5919 122.642 10.796 122.65 11C122.669 11.6452 122.802 12.2819 123.045 12.88C123.31 13.58 123.575 14.33 123.845 15.115C124.106 15.8936 124.239 16.709 124.24 17.53C124.24 17.745 124.24 17.95 124.215 18.13C124.195 18.298 124.167 18.4649 124.13 18.63C124.755 18.4521 125.329 18.1282 125.805 17.685C126.452 17.0674 126.98 16.3371 127.365 15.53L127.695 15.78C127.406 16.7229 126.891 17.581 126.195 18.28C125.565 18.9203 124.75 19.347 123.865 19.5C123.601 20.2127 123.09 20.807 122.425 21.175C121.726 21.5371 120.947 21.716 120.16 21.695ZM119.97 20.5C120.322 20.4998 120.667 20.4048 120.97 20.225C121.288 20.0361 121.544 19.7602 121.71 19.43C120.981 19.2755 120.291 18.9763 119.68 18.55C119.149 18.1973 118.677 17.7637 118.28 17.265C118.025 17.32 117.895 17.565 117.895 18.005C117.897 18.6114 118.079 19.2034 118.42 19.705C118.583 19.9643 118.813 20.1748 119.086 20.3147C119.359 20.4545 119.664 20.5185 119.97 20.5ZM121.945 18.605C121.985 18.4582 122.007 18.3071 122.01 18.155C122.01 17.98 122.01 17.85 122.01 17.755C121.992 16.9319 121.881 16.1133 121.68 15.315C121.48 14.51 121.28 13.69 121.08 12.845C120.75 13.415 120.365 14.025 119.925 14.685C119.56 15.2499 119.147 15.7819 118.69 16.275C119.43 17.4394 120.591 18.2739 121.93 18.605H121.945Z" fill="black"/>
<path d="M6.345 22.42C5.31015 22.4254 4.28311 22.2407 3.315 21.875C2.39755 21.5365 1.58773 20.9581 0.970005 20.2C0.349963 19.4013 0.0297031 18.4105 0.0650025 17.4C0.0164879 16.5759 0.249184 15.7597 0.725002 15.085C1.14253 14.5389 1.71623 14.1326 2.37 13.92C2.988 13.7071 3.63639 13.5956 4.29 13.59C3.74477 14.1493 3.29541 14.7946 2.96 15.5C2.66929 16.092 2.51226 16.7406 2.5 17.4C2.50342 18.0165 2.6764 18.6202 3 19.145C3.34784 19.7092 3.84666 20.1647 4.44 20.46C5.18378 20.8197 6.00443 20.9913 6.83 20.96C7.64754 20.9613 8.45925 20.8226 9.23 20.55C9.96232 20.3035 10.622 19.8792 11.15 19.315C11.6573 18.753 11.9278 18.0167 11.905 17.26C11.9193 16.56 11.6914 15.8765 11.26 15.325C10.7911 14.7514 10.2301 14.2597 9.6 13.87C8.92 13.44 8.21 13.03 7.46 12.635C6.72207 12.2527 6.00748 11.827 5.32 11.36C4.67511 10.9347 4.11268 10.396 3.66 9.77C3.21559 9.13866 2.98437 8.38192 3 7.61C3.01676 6.77908 3.20932 5.96113 3.565 5.21C3.95882 4.3253 4.49983 3.5138 5.165 2.81C5.87402 2.04747 6.72268 1.42795 7.665 0.985003C8.69605 0.510156 9.81995 0.271028 10.955 0.285003C12.22 0.285003 13.105 0.550003 13.62 1.08C13.8792 1.35961 14.0802 1.68788 14.2116 2.0458C14.3429 2.40371 14.4018 2.78413 14.385 3.165C14.3744 3.90189 14.2548 4.63316 14.03 5.335C13.7973 6.08576 13.5081 6.81785 13.165 7.525C12.8709 8.13636 12.5455 8.73215 12.19 9.31C11.8423 9.24528 11.5249 9.06989 11.285 8.81C11.0748 8.55094 10.9679 8.2232 10.985 7.89C10.9935 7.45016 11.0728 7.01457 11.22 6.6C11.375 6.125 11.555 5.635 11.765 5.1C11.975 4.565 12.16 4.1 12.315 3.6C12.4576 3.1894 12.5369 2.75947 12.55 2.325C12.5575 2.18359 12.5356 2.04215 12.4857 1.90963C12.4357 1.7771 12.3589 1.65635 12.26 1.555C11.9148 1.33257 11.5029 1.23712 11.095 1.285C10.2549 1.27462 9.42528 1.47215 8.68 1.86C7.29335 2.58454 6.1844 3.74622 5.525 5.165C5.25674 5.71795 5.10688 6.32081 5.085 6.935C5.07153 7.55753 5.29903 8.1612 5.72 8.62C6.19397 9.12691 6.74387 9.55705 7.35 9.895C8.02 10.28 8.72 10.665 9.46 11.05C10.1953 11.4264 10.9022 11.8559 11.575 12.335C12.2224 12.7939 12.7757 13.3727 13.205 14.04C13.6621 14.7771 13.89 15.6332 13.86 16.5C13.8722 17.3754 13.6513 18.2382 13.22 19C12.7822 19.7381 12.1863 20.3699 11.475 20.85C10.7327 21.3605 9.9142 21.7503 9.05 22.005C8.17334 22.2743 7.26206 22.4141 6.345 22.42Z" fill="#990000"/>
<path d="M17.32 20.91C16.9913 20.9466 16.6589 20.8906 16.3603 20.7484C16.0616 20.6061 15.8087 20.3833 15.63 20.105C15.3297 19.5637 15.1747 18.9539 15.18 18.335C15.1829 17.7248 15.2756 17.1183 15.455 16.535C15.6306 15.9352 15.8826 15.3604 16.205 14.825C16.4867 14.3423 16.8485 13.9111 17.275 13.55C17.6025 13.2485 18.0254 13.0715 18.47 13.05C18.6222 13.0522 18.7734 13.0741 18.92 13.115C19.0632 13.1429 19.1942 13.2145 19.295 13.32C19.0455 13.6361 18.8199 13.9704 18.62 14.32C18.3884 14.7444 18.1813 15.1818 18 15.63C17.8119 16.0703 17.6597 16.5251 17.545 16.99C17.4447 17.4027 17.3911 17.8253 17.385 18.25C17.3704 18.5646 17.4412 18.8774 17.59 19.155C17.6651 19.2768 17.7728 19.3751 17.901 19.4387C18.0291 19.5024 18.1726 19.5288 18.315 19.515C18.7847 19.4595 19.2236 19.2523 19.565 18.925C20.0668 18.5144 20.5303 18.0592 20.95 17.565C20.4034 17.087 19.9711 16.4924 19.685 15.825C19.4133 15.0929 19.2843 14.3156 19.305 13.535C19.3192 13.0814 19.4158 12.6341 19.59 12.215C19.7831 11.7183 20.0956 11.277 20.5 10.93C20.9945 10.5424 21.6126 10.3471 22.24 10.38C22.5495 10.3472 22.8623 10.3902 23.1514 10.5052C23.4406 10.6201 23.6975 10.8037 23.9 11.04C24.2324 11.4915 24.408 12.0394 24.4 12.6C24.3742 13.3879 24.1924 14.1628 23.865 14.88C23.5141 15.7124 23.0873 16.5108 22.59 17.265C22.8286 17.3791 23.0906 17.4356 23.355 17.43C23.6967 17.4192 24.0343 17.3533 24.355 17.235C24.7679 17.0942 25.1499 16.8752 25.48 16.59C25.8678 16.2617 26.1684 15.8426 26.355 15.37L26.855 15.73C26.5379 16.5562 25.9784 17.2673 25.25 17.77C24.6735 18.1714 23.9922 18.3956 23.29 18.415C23.0502 18.4157 22.8108 18.3939 22.575 18.35C22.3531 18.3038 22.1343 18.2437 21.92 18.17C21.2947 18.9018 20.5751 19.5474 19.78 20.09C19.0642 20.6105 18.205 20.897 17.32 20.91ZM21.65 16.69C22.0941 16.0434 22.471 15.3531 22.775 14.63C23.0662 13.9917 23.2261 13.3013 23.245 12.6C23.2691 12.2826 23.2014 11.965 23.05 11.685C22.988 11.5905 22.9022 11.514 22.8013 11.4631C22.7004 11.4122 22.5879 11.3887 22.475 11.395C22.125 11.395 21.77 11.64 21.405 12.135C21.0234 12.6802 20.8303 13.335 20.855 14C20.8683 14.4731 20.9371 14.9429 21.06 15.4C21.1617 15.8674 21.363 16.3074 21.65 16.69Z" fill="white"/>
<path d="M27.795 20.855C27.4923 20.8519 27.1955 20.7712 26.9328 20.6206C26.6702 20.4701 26.4506 20.2547 26.295 19.995C25.8961 19.4054 25.69 18.7066 25.705 17.995C25.7173 17.3843 25.7995 16.777 25.95 16.185C26.1142 15.4932 26.3298 14.8147 26.595 14.155C26.81 13.579 27.0796 13.0248 27.4 12.5C27.68 12.06 27.94 11.84 28.18 11.84C28.3889 11.8662 28.5899 11.936 28.77 12.045C29.0269 12.1759 29.2629 12.3444 29.47 12.545C29.193 12.9742 28.949 13.4238 28.74 13.89C28.446 14.5205 28.1954 15.1703 27.99 15.835C27.784 16.4461 27.6728 17.0852 27.66 17.73C27.66 17.8 27.66 17.975 27.7 18.23C27.7232 18.495 27.7926 18.7539 27.905 18.995C27.9509 19.1078 28.0312 19.2032 28.1344 19.2678C28.2376 19.3324 28.3585 19.3629 28.48 19.355C28.8646 19.3209 29.222 19.1422 29.48 18.855C29.8888 18.4551 30.2557 18.0144 30.575 17.54C30.9517 17 31.3167 16.42 31.67 15.8C32.03 15.175 32.35 14.575 32.63 13.99C32.91 13.405 33.13 12.91 33.33 12.49C33.5482 12.5204 33.7638 12.5672 33.975 12.63C34.2198 12.6939 34.4552 12.7897 34.675 12.915C34.7657 12.9632 34.8416 13.0352 34.8945 13.1233C34.9474 13.2114 34.9752 13.3123 34.975 13.415C34.9116 13.6467 34.8244 13.8712 34.715 14.085C34.545 14.48 34.34 14.95 34.115 15.5C33.8788 16.0719 33.6735 16.6561 33.5 17.25C33.3419 17.7349 33.2543 18.2401 33.24 18.75C33.2346 18.9822 33.2861 19.2122 33.39 19.42C33.4499 19.5201 33.5375 19.6007 33.6422 19.6521C33.7469 19.7036 33.8642 19.7237 33.98 19.71C34.4749 19.6766 34.95 19.5032 35.35 19.21C35.965 18.7884 36.5186 18.2836 36.995 17.71C37.5968 16.9928 38.1012 16.1993 38.495 15.35L38.905 15.68C38.5209 16.6397 37.995 17.5363 37.345 18.34C36.768 19.0688 36.0714 19.6943 35.285 20.19C34.6486 20.6096 33.907 20.8417 33.145 20.86C32.732 20.8856 32.3241 20.7573 32 20.5C31.7273 20.2426 31.5405 19.9074 31.465 19.54C31.3703 19.1498 31.3151 18.7512 31.3 18.35V17.8C30.9922 18.2972 30.6584 18.7779 30.3 19.24C29.9634 19.6768 29.5718 20.0684 29.135 20.405C28.7522 20.7024 28.2797 20.8611 27.795 20.855Z" fill="white"/>
<path d="M47.05 20.585C46.4578 20.6252 45.8732 20.4333 45.42 20.05C45.2355 19.8758 45.0898 19.6646 44.9925 19.4303C44.8951 19.1959 44.8483 18.9437 44.855 18.69C44.8599 18.294 44.9257 17.9011 45.05 17.525L45.435 16.275C45.5564 15.8847 45.6204 15.4788 45.625 15.07C45.6439 14.9179 45.6276 14.7635 45.5773 14.6187C45.527 14.4739 45.4441 14.3427 45.335 14.235C45.1464 14.0801 44.9091 13.9969 44.665 14C44.051 14.0324 43.4653 14.2681 43 14.67C42.376 15.1642 41.8136 15.7316 41.325 16.36C40.785 17.035 40.28 17.74 39.8 18.47C39.32 19.2 38.915 19.86 38.57 20.47C38.2288 20.4725 37.89 20.4133 37.57 20.295C37.2509 20.169 36.9749 19.9538 36.775 19.675C36.8657 19.3915 36.9709 19.1128 37.09 18.84C37.28 18.375 37.495 17.815 37.735 17.165C37.9814 16.4951 38.1917 15.8125 38.365 15.12C38.5386 14.4859 38.631 13.8324 38.64 13.175C38.8122 12.9981 39.0114 12.8496 39.23 12.735C39.4852 12.5921 39.7725 12.5164 40.065 12.515C40.6883 12.505 41 12.7717 41 13.315C40.9875 13.6428 40.9474 13.969 40.88 14.29C40.795 14.72 40.68 15.205 40.535 15.755C41.0102 15.113 41.5333 14.5079 42.1 13.945C42.6269 13.408 43.222 12.9424 43.87 12.56C44.4275 12.2188 45.0665 12.034 45.72 12.025C46.0599 11.9947 46.4019 12.0518 46.7134 12.191C47.025 12.3301 47.2958 12.5467 47.5 12.82C47.8679 13.3312 48.0656 13.9452 48.065 14.575C48.0679 15.0992 47.9747 15.6194 47.79 16.11C47.605 16.61 47.43 17.035 47.255 17.455C47.0873 17.8454 46.999 18.2652 46.995 18.69C46.9823 18.802 46.9941 18.9155 47.0295 19.0225C47.0649 19.1295 47.123 19.2276 47.2 19.31C47.3235 19.4214 47.4836 19.4837 47.65 19.485C48.1613 19.4448 48.6408 19.221 49 18.855C49.5197 18.3814 49.9753 17.8418 50.355 17.25C50.7759 16.6204 51.1583 15.9659 51.5 15.29L51.965 15.675C51.6016 16.5285 51.1668 17.3498 50.665 18.13C50.2329 18.8132 49.6846 19.4156 49.045 19.91C48.4743 20.3519 47.7718 20.5896 47.05 20.585Z" fill="white"/>
<path d="M52.675 20.855C52.3079 20.8516 51.9467 20.7625 51.62 20.595C51.2501 20.4149 50.937 20.1363 50.715 19.79C50.4514 19.3719 50.3206 18.8838 50.34 18.39C50.3613 17.6921 50.5105 17.0041 50.78 16.36C51.0952 15.5687 51.4959 14.8142 51.975 14.11C52.4767 13.358 53.0658 12.6682 53.73 12.055C54.3645 11.4579 55.0799 10.9529 55.855 10.555C56.5561 10.1832 57.3365 9.98595 58.13 9.97999C58.4756 9.95879 58.8206 10.0295 59.13 10.185C59.246 10.2521 59.3409 10.3506 59.4036 10.4691C59.4664 10.5875 59.4946 10.7213 59.485 10.855C59.4842 10.9623 59.4656 11.0688 59.43 11.17C59.382 11.3063 59.2836 11.419 59.155 11.485C59.0624 11.3625 58.9264 11.2802 58.775 11.255C58.5852 11.2084 58.3905 11.1849 58.195 11.185C57.5843 11.1855 56.9863 11.3588 56.47 11.685C55.9049 12.0369 55.3987 12.4756 54.97 12.985C54.5117 13.5178 54.1111 14.0977 53.775 14.715C53.4629 15.2852 53.2035 15.8826 53 16.5C52.8345 16.9836 52.7418 17.4891 52.725 18C52.7115 18.2942 52.7883 18.5856 52.945 18.835C53.019 18.9395 53.1185 19.0232 53.234 19.0784C53.3495 19.1335 53.4773 19.1582 53.605 19.15C54.2749 19.0705 54.8985 18.7675 55.375 18.29C56.1914 17.5591 56.9016 16.7176 57.485 15.79C58.277 14.5627 58.9341 13.2534 59.445 11.885C59.8517 10.8383 60.2733 9.77332 60.71 8.68999C61.145 7.59999 61.585 6.55499 62.025 5.54499C62.465 4.53499 62.9 3.64499 63.33 2.85999C63.6706 2.2025 64.0742 1.57958 64.535 0.999988C64.6566 0.8137 64.8161 0.655097 65.003 0.534494C65.1899 0.413891 65.4002 0.33399 65.62 0.299988C65.7205 0.300792 65.8197 0.322042 65.9117 0.362444C66.0037 0.402846 66.0864 0.461553 66.155 0.534987C66.2324 0.61208 66.2931 0.7042 66.3336 0.80567C66.374 0.90714 66.3932 1.01581 66.39 1.12499C66.3317 1.64869 66.1775 2.15717 65.935 2.62499C65.635 3.30832 65.2517 4.12665 64.785 5.07999C64.315 6.02999 63.815 7.07999 63.285 8.16499C62.755 9.24999 62.245 10.405 61.785 11.565C61.3331 12.6842 60.9491 13.8296 60.635 14.995C60.3466 16.0258 60.1937 17.0897 60.18 18.16C60.1594 18.4638 60.202 18.7685 60.305 19.055C60.3462 19.1302 60.4082 19.1919 60.4836 19.2327C60.559 19.2735 60.6445 19.2917 60.73 19.285C61.213 19.2589 61.679 19.0978 62.075 18.82C62.6436 18.4387 63.1496 17.9714 63.575 17.435C64.1271 16.757 64.5955 16.015 64.97 15.225L65.495 15.665C65.1191 16.6244 64.5999 17.5213 63.955 18.325C63.3995 19.0381 62.7225 19.6474 61.955 20.125C61.3232 20.5274 60.5938 20.7503 59.845 20.77C59.544 20.8019 59.24 20.7523 58.9647 20.6266C58.6894 20.5008 58.4529 20.3034 58.28 20.055C57.9777 19.5496 57.8251 18.9687 57.84 18.38C57.8413 18.082 57.8647 17.7845 57.91 17.49C57.955 17.19 58.005 16.89 58.06 16.6C57.5252 17.3845 56.9247 18.1221 56.265 18.805C55.7117 19.3805 55.0885 19.8844 54.41 20.305C53.8937 20.6454 53.2931 20.8358 52.675 20.855Z" fill="white"/>
<path d="M74.21 22.255C73.3419 22.306 72.4766 22.1156 71.71 21.705C71.4206 21.5042 71.188 21.232 71.0347 20.9149C70.8814 20.5978 70.8126 20.2465 70.835 19.895C70.835 19.71 70.935 19.62 71.135 19.62C71.3906 19.6333 71.6438 19.6752 71.89 19.745C72.5294 19.8499 73.1775 19.8918 73.825 19.87C75.3199 19.8864 76.8112 19.7184 78.265 19.37C79.4892 19.0766 80.667 18.6156 81.765 18C82.6602 17.5105 83.4489 16.8476 84.085 16.05C84.6023 15.4089 84.8909 14.6136 84.905 13.79C84.9198 13.4753 84.8703 13.1608 84.7594 12.866C84.6485 12.5711 84.4785 12.3019 84.26 12.075C83.781 11.6111 83.1982 11.2683 82.56 11.075C81.8127 10.839 81.0411 10.688 80.26 10.625C79.425 10.55 78.605 10.515 77.8 10.515C77.455 10.515 77.105 10.515 76.76 10.515C76.415 10.515 76.085 10.515 75.76 10.515C75.3533 11.905 74.96 13.3417 74.58 14.825C74.2 16.3083 73.7967 17.7617 73.37 19.185C72.8598 19.1973 72.3595 19.0428 71.945 18.745C71.7634 18.6307 71.6131 18.4731 71.5075 18.2863C71.4019 18.0996 71.3443 17.8895 71.34 17.675C71.3491 17.4573 71.3809 17.2411 71.435 17.03C71.5158 16.7103 71.6126 16.3949 71.725 16.085C71.835 15.74 72.025 15.16 72.29 14.355C72.555 13.55 72.87 12.6 73.235 11.505C73.6 10.41 74.005 9.24998 74.455 8.03498C74.905 6.81998 75.37 5.62499 75.855 4.45499C76.34 3.28499 76.82 2.23499 77.295 1.29999C76.6775 1.43716 76.0759 1.63824 75.5 1.89999C75.1149 2.08043 74.7394 2.28069 74.375 2.49999C74.1871 2.62998 73.9713 2.71391 73.745 2.74499C73.5866 2.72529 73.4382 2.65719 73.32 2.54999C73.1459 2.42503 72.988 2.27891 72.85 2.11499C72.7338 1.99577 72.6615 1.84064 72.645 1.67499C73.6513 1.26677 74.6776 0.909643 75.72 0.604986C76.9719 0.270673 78.2645 0.11414 79.56 0.139986C80.2841 0.144562 81.0072 0.194661 81.725 0.289986C82.4994 0.386282 83.2567 0.589903 83.975 0.894986C84.669 1.18457 85.278 1.64564 85.745 2.23499C86.2405 2.92457 86.4873 3.7619 86.445 4.60998C86.4657 5.32425 86.2929 6.03083 85.945 6.65498C85.6027 7.2439 85.1412 7.75481 84.59 8.15498C84.0124 8.5647 83.3859 8.90064 82.725 9.15498C82.0726 9.41197 81.4046 9.6274 80.725 9.79998C81.6936 9.90669 82.6436 10.1421 83.55 10.5C84.2137 10.7611 84.8263 11.1369 85.36 11.61C85.764 11.9745 86.0905 12.4166 86.32 12.91C86.5018 13.3214 86.5987 13.7652 86.605 14.215C86.6209 15.2469 86.3246 16.2594 85.755 17.12C85.1627 18.0076 84.4037 18.7718 83.52 19.37C82.5792 20.014 81.5655 20.5444 80.5 20.95C79.4295 21.3788 78.3237 21.7134 77.195 21.95C76.2125 22.1499 75.2126 22.252 74.21 22.255ZM76.045 9.49998C77.053 9.46417 78.0564 9.34544 79.045 9.14498C79.9712 8.96199 80.8702 8.66122 81.72 8.24998C82.4677 7.89661 83.1207 7.37047 83.625 6.71499C84.1172 6.03446 84.3688 5.20938 84.34 4.36999C84.3637 4.0009 84.3126 3.63083 84.1897 3.28199C84.0669 2.93315 83.8748 2.61274 83.625 2.33999C83.1109 1.83634 82.464 1.48948 81.76 1.33999C80.9504 1.15114 80.1213 1.05883 79.29 1.06499H79.18C78.5311 2.36187 77.9634 3.69777 77.48 5.06498C76.9833 6.50498 76.505 7.98332 76.045 9.49998Z" fill="#990000"/>
<path d="M88.83 27.55C88.3705 27.5486 87.9235 27.3996 87.555 27.125C87.3519 26.9647 87.1917 26.7566 87.0888 26.5193C86.9858 26.2819 86.9433 26.0228 86.965 25.765C86.9545 25.1994 87.1302 24.646 87.465 24.19C87.8413 23.6906 88.2954 23.2551 88.81 22.9C89.3704 22.4965 89.9623 22.1387 90.58 21.83C91.21 21.51 91.815 21.21 92.4 20.935C92.605 20.405 92.825 19.735 93.075 18.935C93.325 18.135 93.535 17.37 93.72 16.675C93.1825 17.4245 92.5766 18.1225 91.91 18.76C91.3431 19.3308 90.5745 19.6559 89.77 19.665C89.4118 19.6596 89.0575 19.5884 88.725 19.455C88.3548 19.317 88.0356 19.0693 87.81 18.745C87.5435 18.3433 87.4138 17.8663 87.44 17.385C87.4549 16.8014 87.5422 16.222 87.7 15.66C87.8703 14.9785 88.0892 14.3102 88.355 13.66C88.5771 13.0919 88.8587 12.5489 89.195 12.04C89.485 11.61 89.74 11.395 89.96 11.395C90.1326 11.4081 90.3016 11.4503 90.46 11.52C90.6771 11.6092 90.8848 11.7197 91.08 11.85C91.2523 11.9546 91.3858 12.1126 91.46 12.3C91.2493 12.5991 91.0669 12.9171 90.915 13.25C90.6963 13.6955 90.5026 14.1529 90.335 14.62C90.155 15.12 90.005 15.62 89.885 16.085C89.7757 16.4879 89.7153 16.9026 89.705 17.32C89.6985 17.5685 89.7552 17.8145 89.87 18.035C89.9361 18.1393 90.0303 18.2228 90.1417 18.2759C90.2532 18.3289 90.3774 18.3494 90.5 18.335C90.9604 18.3108 91.3999 18.135 91.75 17.835C92.216 17.467 92.6358 17.0439 93 16.575C93.4081 16.0744 93.7839 15.5484 94.125 15C94.1726 14.8007 94.2076 14.5986 94.23 14.395C94.2728 14.107 94.338 13.8228 94.425 13.545C94.5239 13.2269 94.695 12.936 94.925 12.695C95.0496 12.5635 95.2014 12.4609 95.3698 12.3944C95.5383 12.3279 95.7192 12.2991 95.9 12.31C96.037 12.3104 96.1739 12.3187 96.31 12.335L96.775 12.42C96.7307 12.9628 96.6353 13.5002 96.49 14.025C96.2967 14.8217 96.045 15.74 95.735 16.78C95.425 17.825 95.075 18.865 94.69 19.91C95.5686 19.5266 96.3792 19.0032 97.09 18.36C98.0007 17.5102 98.6877 16.4488 99.09 15.27L99.56 15.655C99.3077 16.5274 98.8826 17.3401 98.31 18.045C97.7684 18.7064 97.1354 19.2872 96.43 19.77C95.7658 20.2295 95.0593 20.6247 94.32 20.95C93.8544 22.0791 93.3183 23.178 92.715 24.24C92.2301 25.1267 91.6149 25.9357 90.89 26.64C90.3476 27.1993 89.6088 27.5257 88.83 27.55ZM88.555 26.55C88.9 26.55 89.385 26.18 90.01 25.45C90.7896 24.4463 91.4257 23.339 91.9 22.16C91.289 22.4659 90.6979 22.8099 90.13 23.19C89.5805 23.5415 89.0767 23.9597 88.63 24.435C88.2662 24.7907 88.0516 25.2717 88.03 25.78C88.0323 25.9535 88.0733 26.1243 88.15 26.28C88.1835 26.3587 88.2403 26.4252 88.3126 26.4708C88.385 26.5164 88.4696 26.5388 88.555 26.535V26.55Z" fill="white"/>
<path d="M101 21.13C100.644 21.1454 100.288 21.0902 99.9535 20.9675C99.6188 20.8448 99.3117 20.657 99.05 20.415C98.7858 20.1235 98.5839 19.7811 98.4566 19.4088C98.3294 19.0366 98.2795 18.6422 98.31 18.25C98.3401 17.3031 98.4828 16.3632 98.735 15.45C99.0302 14.2824 99.3857 13.1308 99.8 12C99.652 11.9595 99.5018 11.9278 99.35 11.905C99.1782 11.8742 99.0104 11.8239 98.85 11.755V10.9L99.575 10.98L100.165 11.035C100.548 10.065 100.965 9.12833 101.415 8.225C101.865 7.32 102.31 6.51 102.76 5.795C103.124 5.18954 103.551 4.62467 104.035 4.11C104.298 3.77918 104.677 3.56102 105.095 3.5C105.281 3.50965 105.458 3.58392 105.595 3.71C105.679 3.78261 105.745 3.87372 105.787 3.97612C105.83 4.07851 105.848 4.18939 105.84 4.3C105.777 4.85644 105.585 5.39055 105.28 5.86C104.907 6.52667 104.445 7.31833 103.895 8.235C103.345 9.15167 102.815 10.1167 102.305 11.13H103.155C103.96 11.13 104.685 11.13 105.335 11.085C105.985 11.04 106.645 11.01 107.335 10.935V11.84C106.335 11.935 105.405 12.005 104.565 12.06C103.725 12.115 102.915 12.15 102.15 12.17H101.82C101.433 13.0681 101.099 13.988 100.82 14.925C100.544 15.8191 100.4 16.7491 100.395 17.685C100.347 18.2389 100.471 18.7942 100.75 19.275C100.887 19.4361 101.061 19.5623 101.256 19.6432C101.452 19.724 101.664 19.7572 101.875 19.74C102.933 19.6803 103.932 19.2357 104.685 18.49C105.734 17.5377 106.583 16.3873 107.185 15.105L107.57 15.38C107.111 16.4317 106.516 17.4184 105.8 18.315C105.162 19.1317 104.387 19.832 103.51 20.385C102.759 20.8614 101.89 21.1193 101 21.13Z" fill="white"/>
<path d="M109.565 21.075C109.075 21.1071 108.583 21.04 108.119 20.8776C107.655 20.7152 107.228 20.461 106.865 20.13C106.553 19.82 106.307 19.4494 106.144 19.0409C105.981 18.6324 105.903 18.1948 105.915 17.755C105.936 16.8656 106.148 15.991 106.535 15.19C106.96 14.2631 107.519 13.4038 108.195 12.64C108.853 11.8743 109.632 11.2208 110.5 10.705C111.253 10.2403 112.116 9.98479 113 9.965C113.478 9.96646 113.947 10.0941 114.36 10.335C114.591 10.4982 114.773 10.7213 114.887 10.9803C115.001 11.2394 115.041 11.5245 115.005 11.805C115.003 12.4993 114.792 13.1771 114.4 13.75C113.966 14.3866 113.417 14.9361 112.78 15.37C112.089 15.8542 111.338 16.2458 110.545 16.535C109.754 16.8314 108.929 17.0295 108.09 17.125C108.09 17.2 108.06 17.275 108.05 17.36C108.043 17.4916 108.043 17.6234 108.05 17.755C108.055 17.9224 108.07 18.0893 108.095 18.255C108.13 18.5096 108.208 18.7564 108.325 18.985C108.471 19.2572 108.689 19.4839 108.955 19.64C109.325 19.8428 109.744 19.938 110.165 19.915C110.988 19.8993 111.792 19.6702 112.5 19.25C113.315 18.7932 114.055 18.2149 114.695 17.535C115.38 16.8277 115.958 16.0243 116.41 15.15L116.96 15.59C116.489 16.6501 115.843 17.6236 115.05 18.47C114.314 19.26 113.442 19.9105 112.475 20.39C111.57 20.8376 110.575 21.0719 109.565 21.075ZM108.415 16.11C108.968 16.0297 109.505 15.8608 110.005 15.61C110.604 15.327 111.169 14.9782 111.69 14.57C112.194 14.179 112.636 13.7137 113 13.19C113.321 12.7457 113.495 12.2128 113.5 11.665C113.516 11.5201 113.478 11.3746 113.395 11.255C113.294 11.1728 113.165 11.1334 113.035 11.145C112.561 11.1617 112.103 11.3202 111.72 11.6C111.224 11.934 110.773 12.3288 110.375 12.775C109.501 13.7485 108.822 14.8806 108.375 16.11H108.415Z" fill="white"/>
<path d="M118.945 21.265C118.169 21.3023 117.4 21.1073 116.735 20.705C116.204 20.3608 115.789 19.8641 115.545 19.28C115.311 18.7193 115.19 18.1177 115.19 17.51C115.169 17.0874 115.242 16.6655 115.405 16.275C115.525 16.0131 115.715 15.7897 115.955 15.63C116.152 15.5064 116.359 15.4009 116.575 15.315C116.731 15.2606 116.875 15.1775 117 15.07C117.499 14.5422 117.97 13.9881 118.41 13.41C118.905 12.7596 119.324 12.0551 119.66 11.31V11.035C119.608 10.4916 119.738 9.94644 120.03 9.48499C120.13 9.34826 120.26 9.23647 120.41 9.15839C120.56 9.08032 120.726 9.03808 120.895 9.03499C120.985 9.02511 121.076 9.03425 121.162 9.06181C121.248 9.08938 121.328 9.13475 121.395 9.19499C121.493 9.30146 121.554 9.43631 121.57 9.57999C121.568 9.71084 121.546 9.8406 121.505 9.96499C121.45 10.1618 121.427 10.3659 121.435 10.57C121.454 11.2152 121.587 11.8519 121.83 12.45C122.095 13.15 122.36 13.9 122.625 14.685C122.889 15.4611 123.024 16.2752 123.025 17.095C123.025 17.315 123.025 17.52 123 17.7C122.98 17.868 122.952 18.0349 122.915 18.2C123.54 18.0221 124.114 17.6982 124.59 17.255C125.237 16.6374 125.765 15.9071 126.15 15.1L126.48 15.35C126.193 16.294 125.678 17.1527 124.98 17.85C124.352 18.4663 123.548 18.8732 122.68 19.015C122.416 19.7277 121.905 20.322 121.24 20.69C120.537 21.0761 119.747 21.2742 118.945 21.265ZM118.755 20.06C119.107 20.0598 119.452 19.9648 119.755 19.785C120.073 19.5995 120.331 19.3272 120.5 19C119.781 18.8387 119.101 18.5361 118.5 18.11C117.969 17.7573 117.497 17.3237 117.1 16.825C116.845 16.88 116.715 17.125 116.715 17.565C116.717 18.1713 116.899 18.7634 117.24 19.265C117.4 19.5189 117.625 19.726 117.891 19.8656C118.157 20.0051 118.455 20.0722 118.755 20.06ZM120.73 18.165C120.767 18.0177 120.789 17.8669 120.795 17.715C120.795 17.54 120.795 17.41 120.795 17.315C120.777 16.4918 120.666 15.6733 120.465 14.875C120.265 14.07 120.065 13.25 119.865 12.405C119.535 12.975 119.15 13.585 118.71 14.245C118.353 14.8089 117.948 15.3409 117.5 15.835C118.24 16.9994 119.401 17.8338 120.74 18.165H120.73Z" fill="white"/>
</svg>
