<svg width="276" height="129" viewBox="0 0 276 129" fill="none" xmlns="http://www.w3.org/2000/svg">
<g clip-path="url(#clip0_2_32)">
<path d="M135.774 79.1484C153.299 79.1484 167.506 64.941 167.506 47.4153C167.506 29.8896 153.299 15.6823 135.774 15.6823C118.248 15.6823 104.041 29.8896 104.041 47.4153C104.041 64.941 118.248 79.1484 135.774 79.1484Z" fill="white"/>
<path d="M17.1099 117.945C14.8789 117.955 12.665 117.554 10.5792 116.762C8.60185 116.045 6.85484 114.807 5.52246 113.18C4.18825 111.459 3.49834 109.326 3.57245 107.15C3.57245 105.014 4.04503 103.347 4.99018 102.15C5.89477 100.978 7.13036 100.104 8.53703 99.6418C9.8694 99.1813 11.2679 98.941 12.6776 98.9304C11.5013 100.143 10.5314 101.54 9.80633 103.066C9.18954 104.344 8.85774 105.741 8.83388 107.16C8.82565 108.481 9.17969 109.779 9.85751 110.912C10.605 112.129 11.6798 113.112 12.9591 113.748C14.5585 114.527 16.3245 114.903 18.1028 114.843C19.8692 114.844 21.6227 114.543 23.2875 113.952C24.8665 113.421 26.2892 112.507 27.428 111.291C28.5204 110.078 29.1017 108.49 29.0505 106.859C29.087 105.349 28.5966 103.874 27.6635 102.687C26.6518 101.451 25.441 100.392 24.0808 99.5548C22.6204 98.6301 21.085 97.7429 19.4745 96.8933C17.888 96.0655 16.3501 95.1478 14.8682 94.1448C13.4769 93.2271 12.2631 92.0654 11.2855 90.7156C10.3388 89.3466 9.85299 87.7116 9.89845 86.0478C9.93593 84.2576 10.3474 82.495 11.1063 80.8732C11.963 78.9675 13.1324 77.2185 14.5662 75.6987C16.1089 74.0494 17.9565 72.7146 20.0068 71.7679C22.2294 70.7428 24.653 70.2269 27.1005 70.258C29.8301 70.258 31.7409 70.8295 32.8328 71.9726C33.3935 72.5742 33.8289 73.2813 34.1136 74.0529C34.3982 74.8244 34.5266 75.6448 34.491 76.4664C34.4703 78.0537 34.2115 79.6289 33.7233 81.1394C33.2225 82.7605 32.5997 84.3414 31.8603 85.8686C31.2295 87.1862 30.529 88.4693 29.7619 89.7124C29.0205 89.5844 28.3383 89.2263 27.8119 88.6888C27.3569 88.1321 27.1253 87.426 27.1619 86.708C27.1841 85.7603 27.3569 84.8222 27.6737 83.9288C28.0149 82.9052 28.409 81.8406 28.856 80.735C29.3064 79.6295 29.7005 78.5598 30.0383 77.5105C30.3477 76.6257 30.5203 75.6989 30.5501 74.762C30.5681 74.4585 30.5224 74.1546 30.4157 73.8698C30.309 73.5851 30.1438 73.3258 29.9308 73.1089C29.5145 72.7165 28.6769 72.5186 27.4178 72.5152C25.6069 72.4953 23.819 72.9225 22.2127 73.7589C19.228 75.3253 16.8401 77.8284 15.4158 80.8835C14.8356 82.0738 14.513 83.3731 14.4689 84.6965C14.4406 86.0375 14.9279 87.3383 15.8304 88.3305C16.85 89.4279 18.0367 90.3572 19.3465 91.0841C20.7864 91.9098 22.3048 92.7373 23.9016 93.5665C25.4828 94.383 27.0033 95.3117 28.4517 96.3456C29.8509 97.3269 31.0452 98.5717 31.9678 100.01C32.9144 101.576 33.3873 103.382 33.3292 105.21C33.3661 107.117 32.885 108.997 31.9371 110.651C30.9987 112.244 29.7171 113.608 28.1855 114.643C26.5812 115.737 24.8165 116.574 22.9548 117.126C21.0566 117.681 19.0876 117.957 17.1099 117.945Z" fill="white"/>
<path d="M40.7556 114.695C38.9848 114.695 37.7735 114.113 37.1218 112.949C36.4701 111.785 36.1331 110.471 36.1442 109.136C36.1524 107.819 36.3524 106.511 36.7379 105.251C37.1223 103.958 37.6674 102.719 38.3603 101.561C38.9635 100.517 39.7447 99.5871 40.6686 98.8127C41.3759 98.183 42.2813 97.8208 43.2277 97.789C43.5584 97.7977 43.8868 97.8475 44.2052 97.9374C44.5116 97.9981 44.791 98.154 45.0037 98.3827C44.4631 99.0712 43.9787 99.8021 43.5552 100.568C43.0526 101.459 42.5981 102.377 42.1938 103.317C41.7873 104.263 41.462 105.243 41.2214 106.244C40.9945 107.133 40.8742 108.045 40.8631 108.962C40.8364 109.642 40.99 110.316 41.3084 110.917C41.4723 111.178 41.7057 111.388 41.9824 111.524C42.259 111.659 42.5679 111.715 42.8745 111.685C43.6218 111.685 44.5192 111.262 45.5667 110.416C46.6459 109.53 47.6444 108.55 48.5505 107.488C47.3692 106.46 46.4394 105.175 45.8328 103.731C45.2418 102.155 44.9603 100.48 45.0037 98.7973C45.0338 97.8204 45.2438 96.8574 45.623 95.9567C46.0491 94.8759 46.7409 93.92 47.6344 93.1775C48.7021 92.3414 50.037 91.9213 51.3911 91.9952C53.0801 91.9952 54.2743 92.4694 54.9738 93.418C55.6718 94.3996 56.0312 95.5818 55.9974 96.7858C55.9437 98.4729 55.5557 100.133 54.8561 101.669C54.0963 103.454 53.1764 105.167 52.1076 106.787C52.6236 107.032 53.1897 107.153 53.7608 107.14C54.488 107.115 55.2066 106.975 55.8899 106.725C56.7773 106.417 57.5999 105.947 58.3159 105.338C59.1492 104.624 59.7987 103.72 60.2096 102.702L61.2691 103.475C60.585 105.256 59.3813 106.789 57.8143 107.877C56.57 108.741 55.1012 109.225 53.5868 109.269C53.0714 109.268 52.5573 109.218 52.0513 109.121C51.5673 109.032 51.0915 108.904 50.6285 108.737C49.2844 110.316 47.7353 111.709 46.0222 112.878C44.4937 114.007 42.6556 114.642 40.7556 114.695ZM50.0962 105.589C51.0512 104.197 51.8639 102.712 52.5222 101.157C53.154 99.7817 53.5021 98.2934 53.5458 96.7807C53.5966 96.0946 53.4529 95.4081 53.1313 94.7999C52.9975 94.5969 52.8126 94.4327 52.5951 94.3239C52.3777 94.2152 52.1354 94.1658 51.8927 94.1806C51.142 94.1806 50.3726 94.7129 49.5844 95.7775C48.762 96.9517 48.3467 98.3629 48.4021 99.7953C48.4291 100.814 48.5786 101.827 48.8474 102.81C49.0551 103.817 49.4814 104.765 50.0962 105.589Z" fill="white"/>
<path d="M63.3419 114.577C62.6806 114.577 62.0308 114.405 61.4557 114.078C60.8807 113.752 60.4002 113.282 60.0612 112.714C59.2057 111.451 58.7606 109.955 58.7868 108.43C58.8091 107.113 58.9808 105.803 59.2986 104.525C59.654 103.034 60.1194 101.571 60.6907 100.149C61.1686 98.9133 61.7615 97.7258 62.4616 96.6016C63.0758 95.6547 63.6336 95.1838 64.1506 95.1838C64.6002 95.2415 65.0327 95.3932 65.4199 95.6291C65.975 95.9121 66.4827 96.2799 66.9246 96.7193C66.3328 97.6473 65.8094 98.6172 65.3585 99.6213C64.7245 100.983 64.1825 102.385 63.736 103.818C63.2899 105.138 63.0499 106.52 63.0246 107.913C63.0246 108.066 63.0553 108.425 63.1116 109.034C63.1682 109.607 63.3186 110.167 63.5569 110.692C63.6585 110.934 63.833 111.137 64.0559 111.275C64.2789 111.413 64.5392 111.477 64.8006 111.46C65.6322 111.383 66.403 110.991 66.9553 110.365C67.8381 109.501 68.6304 108.549 69.3199 107.524C70.1285 106.367 70.9167 105.113 71.6845 103.772C72.4522 102.431 73.1431 101.131 73.7573 99.8721C74.3715 98.613 74.8679 97.5433 75.262 96.6783C75.7332 96.7402 76.1987 96.8395 76.6541 96.9752C77.1812 97.1134 77.6873 97.3217 78.1589 97.5945C78.3589 97.6979 78.5259 97.8554 78.6408 98.0491C78.7557 98.2427 78.8139 98.4647 78.8089 98.6898C78.6702 99.1903 78.4816 99.6755 78.2459 100.138C77.8723 100.983 77.4423 101.996 76.9459 103.184C76.4509 104.372 76.017 105.585 75.6459 106.818C75.3011 107.878 75.1115 108.983 75.0829 110.098C75.0732 110.601 75.1856 111.098 75.4104 111.547C75.5394 111.762 75.7279 111.935 75.9532 112.045C76.1785 112.155 76.4309 112.197 76.6797 112.166C77.7518 112.079 78.7774 111.69 79.638 111.045C80.9652 110.129 82.1588 109.034 83.1849 107.79C84.4891 106.248 85.582 104.539 86.4349 102.708L87.3254 103.419C86.4915 105.486 85.3548 107.418 83.9526 109.151C82.7116 110.723 81.2129 112.073 79.5203 113.144C78.1487 114.044 76.554 114.545 74.914 114.592C73.9907 114.659 73.0763 114.374 72.3549 113.794C71.7762 113.241 71.3753 112.528 71.2033 111.746C71.0076 110.906 70.8894 110.049 70.8502 109.187V108.005C70.1731 109.077 69.4419 110.114 68.6596 111.112C67.9344 112.053 67.0896 112.896 66.1466 113.62C65.3427 114.239 64.3567 114.575 63.3419 114.577Z" fill="white"/>
<path d="M104.845 113.983C103.306 113.983 102.132 113.599 101.324 112.831C100.927 112.457 100.614 112.002 100.405 111.497C100.197 110.993 100.098 110.45 100.116 109.904C100.125 109.05 100.263 108.203 100.525 107.391C100.801 106.504 101.078 105.608 101.354 104.704C101.62 103.862 101.76 102.986 101.769 102.104C101.769 101.234 101.564 100.635 101.15 100.297C100.741 99.9622 100.229 99.7811 99.7011 99.7851C98.3597 99.8448 97.0776 100.355 96.0621 101.234C94.7299 102.303 93.5275 103.524 92.4794 104.873C91.3125 106.331 90.2223 107.846 89.1936 109.423C88.1648 110.999 87.2845 112.417 86.5372 113.681C85.8096 113.684 85.0878 113.552 84.4081 113.292C83.7207 113.025 83.1252 112.565 82.6935 111.967C82.886 111.352 83.1133 110.749 83.3742 110.16C83.7871 109.157 84.2494 107.962 84.7613 106.577C85.2731 105.192 85.7286 103.726 86.1278 102.18C86.498 100.811 86.6958 99.4015 86.7164 97.9835C87.0847 97.5981 87.5156 97.278 87.9908 97.0366C88.5404 96.7263 89.1612 96.564 89.7924 96.5657C91.1743 96.5657 91.8396 97.1543 91.8396 98.3366C91.8128 99.0426 91.7238 99.7448 91.5735 100.435C91.3995 101.36 91.1538 102.414 90.8365 103.598C91.8639 102.219 92.9894 100.916 94.2042 99.6981C95.3407 98.5426 96.6225 97.5396 98.0172 96.7142C99.2119 95.9679 100.586 95.5577 101.994 95.5267C103.7 95.5267 104.952 96.0983 105.751 97.2413C106.542 98.3451 106.965 99.6706 106.959 101.029C106.968 102.16 106.769 103.282 106.37 104.34C105.976 105.364 105.592 106.331 105.218 107.232C104.856 108.073 104.664 108.978 104.655 109.894C104.629 110.134 104.655 110.378 104.732 110.608C104.809 110.837 104.935 111.048 105.101 111.224C105.366 111.469 105.713 111.606 106.073 111.608C107.02 111.608 108.003 111.158 109.031 110.252C110.152 109.229 111.136 108.066 111.959 106.792C112.858 105.432 113.677 104.02 114.411 102.564L115.434 103.393C114.656 105.236 113.717 107.007 112.629 108.686C111.696 110.157 110.515 111.456 109.139 112.524C107.912 113.478 106.399 113.992 104.845 113.983Z" fill="white"/>
<path d="M116.965 114.577C116.172 114.566 115.393 114.373 114.687 114.014C113.893 113.616 113.22 113.014 112.737 112.268C112.173 111.367 111.895 110.316 111.939 109.254C111.979 107.751 112.3 106.268 112.885 104.883C113.558 103.177 114.416 101.549 115.444 100.031C116.532 98.4138 117.801 96.9267 119.227 95.5984C120.595 94.3072 122.137 93.2133 123.807 92.3483C125.32 91.5458 127.004 91.1192 128.716 91.1046C129.452 91.0667 130.185 91.2201 130.845 91.5499C131.097 91.6941 131.302 91.9067 131.438 92.1631C131.574 92.4194 131.635 92.709 131.613 92.9983C131.606 93.228 131.566 93.4555 131.495 93.674C131.39 93.9661 131.18 94.2088 130.906 94.3547C130.704 94.0858 130.408 93.903 130.077 93.8428C129.67 93.7432 129.252 93.6934 128.833 93.6944C127.515 93.7018 126.225 94.0815 125.113 94.7897C123.89 95.5538 122.792 96.5016 121.857 97.5996C120.875 98.7457 120.017 99.993 119.298 101.321C118.614 102.555 118.05 103.852 117.614 105.195C117.255 106.234 117.055 107.321 117.021 108.42C116.989 109.055 117.155 109.684 117.497 110.221C117.655 110.446 117.869 110.627 118.117 110.746C118.365 110.865 118.64 110.919 118.915 110.902C119.979 110.902 121.248 110.277 122.728 109.039C124.488 107.467 126.019 105.656 127.278 103.66C128.988 101.013 130.405 98.188 131.505 95.235C132.372 92.9966 133.283 90.7054 134.238 88.3612C135.194 86.0171 136.139 83.7599 137.074 81.5898C138.022 79.4231 138.959 77.4918 139.883 75.796C140.635 74.3623 141.527 73.0062 142.545 71.7474C143.389 70.7238 144.167 70.2375 144.879 70.2375C145.096 70.2391 145.31 70.2853 145.508 70.3734C145.706 70.4614 145.884 70.5894 146.03 70.7494C146.198 70.9148 146.329 71.1128 146.418 71.3311C146.506 71.5494 146.548 71.7834 146.542 72.0187C146.542 72.7011 146.218 73.776 145.57 75.2432C144.921 76.7104 144.092 78.4728 143.082 80.5303C142.079 82.5776 140.996 84.7955 139.832 87.184C138.669 89.5725 137.579 92.0122 136.562 94.5031C135.586 96.9142 134.757 99.3823 134.08 101.894C133.457 104.117 133.128 106.413 133.102 108.722C133.054 109.375 133.144 110.031 133.368 110.646C133.454 110.812 133.586 110.949 133.749 111.04C133.912 111.131 134.098 111.172 134.284 111.158C135.327 111.095 136.331 110.74 137.181 110.134C138.412 109.312 139.509 108.303 140.431 107.145C141.624 105.685 142.638 104.087 143.451 102.385L144.572 103.332C143.764 105.401 142.647 107.335 141.26 109.07C140.057 110.6 138.597 111.909 136.946 112.939C135.585 113.814 134.008 114.296 132.391 114.331C130.778 114.331 129.652 113.819 129.023 112.796C128.379 111.713 128.051 110.472 128.076 109.213C128.078 108.569 128.127 107.925 128.224 107.288C128.322 106.638 128.434 105.999 128.552 105.369C127.396 107.061 126.1 108.654 124.678 110.129C123.49 111.386 122.148 112.488 120.685 113.41C119.576 114.133 118.288 114.537 116.965 114.577Z" fill="white"/>
<path d="M163.381 117.586C160.975 117.586 159.162 117.192 157.94 116.404C156.719 115.616 156.089 114.316 156.052 112.504C156.052 112.11 156.267 111.91 156.702 111.91C157.251 111.939 157.795 112.029 158.324 112.176C159.702 112.404 161.1 112.493 162.495 112.443C165.72 112.471 168.936 112.104 172.071 111.347C174.728 110.72 177.284 109.726 179.667 108.394C181.593 107.34 183.291 105.913 184.662 104.197C185.782 102.815 186.408 101.098 186.438 99.3194C186.469 98.6411 186.362 97.9635 186.123 97.3281C185.884 96.6927 185.517 96.1128 185.046 95.624C184.012 94.6321 182.755 93.9021 181.381 93.4948C179.768 92.9835 178.103 92.6555 176.417 92.5172C174.62 92.3637 172.834 92.2818 171.125 92.2818C170.377 92.2818 169.625 92.2818 168.878 92.3125C168.13 92.3432 167.419 92.3432 166.748 92.3432C165.885 95.3391 165.032 98.4322 164.189 101.623C163.347 104.813 162.478 107.947 161.584 111.025C160.485 111.05 159.408 110.718 158.513 110.078C158.121 109.832 157.797 109.492 157.57 109.089C157.343 108.686 157.22 108.232 157.213 107.77C157.229 107.301 157.298 106.836 157.418 106.383C157.556 105.814 157.761 105.134 158.037 104.335C158.314 103.537 158.677 102.344 159.25 100.609C159.824 98.8741 160.499 96.8268 161.298 94.4673C162.096 92.1078 162.961 89.6101 163.928 86.9895C164.896 84.369 165.894 81.7996 166.943 79.2763C167.992 76.7531 169.041 74.4857 170.065 72.4947C168.726 72.776 167.42 73.1927 166.165 73.7384C165.334 74.1083 164.524 74.5235 163.739 74.9821C163.334 75.2609 162.866 75.4366 162.378 75.494C162.038 75.4495 161.719 75.3052 161.461 75.0794C161.084 74.8056 160.74 74.4877 160.438 74.1325C160.185 73.8775 160.028 73.5431 159.993 73.1856C162.122 72.3224 164.329 71.5529 166.615 70.8773C169.313 70.1513 172.098 69.8067 174.891 69.8537C176.454 69.865 178.015 69.9744 179.564 70.1812C181.232 70.3897 182.863 70.8272 184.411 71.4813C185.91 72.103 187.223 73.1008 188.224 74.3782C189.227 75.6577 189.731 77.3638 189.734 79.4964C189.771 81.0371 189.393 82.5593 188.639 83.9032C187.895 85.1578 186.898 86.2437 185.711 87.0919C184.471 87.9909 183.121 88.7271 181.693 89.2825C180.285 89.8366 178.842 90.2999 177.374 90.6695C179.479 90.8969 181.545 91.4047 183.515 92.1794C184.948 92.7397 186.268 93.5508 187.415 94.5748C188.292 95.3572 188.998 96.312 189.488 97.3795C189.884 98.2642 190.095 99.2204 190.108 100.189C190.138 102.414 189.5 104.597 188.275 106.454C186.995 108.367 185.358 110.014 183.454 111.306C181.41 112.711 179.208 113.871 176.893 114.761C174.583 115.666 172.199 116.368 169.768 116.86C167.668 117.312 165.529 117.555 163.381 117.586ZM167.342 90.0963C169.526 90.0172 171.7 89.7605 173.842 89.3286C175.84 88.9388 177.779 88.2919 179.61 87.4041C181.218 86.6394 182.621 85.5046 183.705 84.0926C184.765 82.6265 185.305 80.8488 185.24 79.0409C185.24 77.1472 184.728 75.6885 183.705 74.6648C182.592 73.5914 181.2 72.8534 179.687 72.5356C177.942 72.1304 176.156 71.9311 174.364 71.9419H174.16C172.756 74.7289 171.532 77.6027 170.495 80.5457C169.376 83.6405 168.325 86.824 167.342 90.0963Z" fill="white"/>
<path d="M194.893 128.995C193.901 128.994 192.935 128.673 192.14 128.079C191.295 127.47 190.87 126.492 190.87 125.156C190.858 123.928 191.254 122.731 191.996 121.753C192.813 120.683 193.79 119.745 194.893 118.973C196.103 118.109 197.378 117.339 198.706 116.67C200.071 115.988 201.381 115.348 202.637 114.751C203.067 113.604 203.553 112.156 204.085 110.405C204.617 108.655 205.078 107.022 205.472 105.523C204.319 107.142 203.013 108.647 201.572 110.016C200.355 111.251 198.699 111.954 196.966 111.972C196.196 111.96 195.435 111.809 194.719 111.526C193.921 111.222 193.232 110.688 192.738 109.991C192.167 109.125 191.887 108.099 191.94 107.063C191.972 105.803 192.162 104.551 192.503 103.337C192.876 101.878 193.35 100.447 193.921 99.0532C194.4 97.8309 195.003 96.6611 195.722 95.5626C196.352 94.6362 196.904 94.1755 197.38 94.1755C197.734 94.2054 198.081 94.2954 198.404 94.4417C198.872 94.6273 199.319 94.8642 199.735 95.148C200.108 95.3759 200.397 95.719 200.559 96.1256C200.105 96.7715 199.709 97.4566 199.377 98.1729C198.914 99.1374 198.501 100.125 198.138 101.131C197.758 102.168 197.432 103.224 197.16 104.294C196.926 105.163 196.797 106.056 196.777 106.956C196.764 107.489 196.885 108.017 197.13 108.491C197.272 108.717 197.475 108.898 197.716 109.013C197.957 109.128 198.226 109.173 198.491 109.141C199.482 109.095 200.429 108.721 201.183 108.077C202.196 107.284 203.109 106.372 203.901 105.359C204.766 104.284 205.566 103.157 206.296 101.986C206.404 101.558 206.483 101.124 206.532 100.686C206.616 100.064 206.754 99.4509 206.946 98.8536C207.146 98.1738 207.496 97.5476 207.97 97.0213C208.238 96.7378 208.564 96.5166 208.927 96.3733C209.289 96.23 209.679 96.1682 210.068 96.1921C210.366 96.1908 210.664 96.2113 210.959 96.2535C211.23 96.2945 211.568 96.3508 211.982 96.4327C211.884 97.6027 211.676 98.761 211.363 99.8926C210.95 101.599 210.408 103.578 209.736 105.83C209.063 108.082 208.314 110.329 207.489 112.57C209.385 111.747 211.133 110.618 212.663 109.228C214.455 107.672 215.903 105.454 217.008 102.575L218.032 103.404C217.49 105.282 216.575 107.032 215.34 108.548C214.175 109.975 212.812 111.228 211.292 112.268C209.859 113.263 208.336 114.12 206.742 114.828C205.741 117.264 204.585 119.633 203.282 121.921C202.237 123.833 200.912 125.577 199.351 127.096C198.169 128.285 196.569 128.966 194.893 128.995ZM194.299 126.809C195.047 126.809 196.091 126.021 197.432 124.445C198.773 122.868 200.137 120.504 201.526 117.351C200.207 118.016 198.93 118.761 197.703 119.582C196.524 120.346 195.443 121.25 194.484 122.275C193.694 123.037 193.228 124.075 193.184 125.172C193.182 125.561 193.273 125.945 193.45 126.292C193.524 126.453 193.644 126.588 193.796 126.681C193.947 126.773 194.122 126.818 194.299 126.809Z" fill="white"/>
<path d="M221.083 115.165C220.315 115.2 219.549 115.082 218.828 114.818C218.107 114.554 217.445 114.151 216.881 113.63C215.819 112.606 215.289 111.05 215.289 108.962C215.349 106.921 215.656 104.895 216.205 102.928C216.852 100.406 217.631 97.9204 218.539 95.4807C218.218 95.3909 217.891 95.3208 217.561 95.2708C217.185 95.2137 216.818 95.1052 216.471 94.9484V93.1161C217.101 93.1928 217.623 93.2542 218.037 93.2901L219.307 93.4129C220.136 91.3247 221.033 89.3047 221.999 87.3529C222.874 85.559 223.841 83.8114 224.896 82.117C225.681 80.8121 226.602 79.594 227.644 78.483C228.511 77.5959 229.278 77.1523 229.947 77.1523C230.364 77.1602 230.764 77.3183 231.073 77.5976C231.251 77.7552 231.389 77.9518 231.478 78.172C231.567 78.3923 231.604 78.6301 231.585 78.8669C231.585 79.6551 231.181 80.7811 230.372 82.2347C229.563 83.6883 228.57 85.3978 227.388 87.3529C226.206 89.3081 225.059 91.381 223.959 93.5869H225.791C227.525 93.5869 229.091 93.5579 230.49 93.4999C231.887 93.4385 233.32 93.331 234.779 93.1724V95.1275C232.609 95.322 230.618 95.479 228.806 95.5984C226.994 95.7161 225.259 95.798 223.601 95.8338H222.894C222.065 97.7712 221.343 99.7533 220.734 101.771C220.141 103.696 219.832 105.698 219.818 107.713C219.818 109.331 220.074 110.474 220.586 111.142C220.879 111.495 221.252 111.772 221.674 111.951C222.096 112.129 222.555 112.203 223.012 112.166C224.984 112.166 227.004 111.27 229.072 109.479C231.343 107.425 233.188 104.945 234.502 102.18L235.331 102.774C234.339 105.04 233.056 107.167 231.513 109.1C230.14 110.863 228.471 112.373 226.579 113.563C224.932 114.598 223.028 115.153 221.083 115.165Z" fill="white"/>
<path d="M239.585 115.043C237.06 115.043 235.118 114.36 233.76 112.995C233.088 112.327 232.559 111.528 232.207 110.648C231.855 109.768 231.687 108.825 231.713 107.877C231.756 105.961 232.21 104.076 233.044 102.349C233.96 100.349 235.168 98.4948 236.626 96.8472C238.045 95.1987 239.721 93.7917 241.591 92.681C243.227 91.6669 245.107 91.115 247.031 91.0841C248.059 91.0854 249.068 91.361 249.954 91.8826C250.879 92.4149 251.343 93.4692 251.346 95.0456C251.346 96.5437 250.892 98.0066 250.046 99.2426C249.108 100.611 247.924 101.795 246.555 102.733C245.065 103.774 243.446 104.617 241.739 105.241C240.035 105.884 238.257 106.312 236.447 106.516C236.404 106.683 236.375 106.855 236.36 107.027C236.335 107.313 236.325 107.6 236.329 107.887C236.329 108.082 236.36 108.43 236.416 108.911C236.497 109.458 236.67 109.988 236.928 110.477C237.241 111.067 237.713 111.558 238.29 111.895C239.085 112.33 239.985 112.536 240.89 112.489C242.647 112.461 244.367 111.982 245.885 111.096C247.64 110.112 249.235 108.866 250.614 107.401C252.088 105.874 253.333 104.141 254.309 102.257L255.487 103.204C254.48 105.489 253.096 107.588 251.392 109.413C249.801 111.124 247.91 112.531 245.813 113.563C243.878 114.527 241.747 115.033 239.585 115.043ZM237.112 104.345C238.304 104.172 239.461 103.813 240.542 103.281C241.832 102.669 243.051 101.915 244.175 101.034C245.278 100.189 246.247 99.1809 247.047 98.0449C247.751 97.0936 248.142 95.9473 248.168 94.7641C248.203 94.4499 248.119 94.1338 247.932 93.8787C247.717 93.702 247.441 93.6174 247.164 93.6432C246.142 93.6804 245.154 94.0187 244.324 94.6157C243.255 95.3447 242.282 96.2044 241.427 97.1748C240.46 98.239 239.602 99.3982 238.868 100.635C238.163 101.811 237.575 103.054 237.112 104.345Z" fill="white"/>
<path d="M259.806 115.457C258.134 115.536 256.477 115.114 255.046 114.244C253.904 113.502 253.012 112.431 252.487 111.173C251.983 109.965 251.722 108.669 251.72 107.36C251.676 106.449 251.837 105.539 252.19 104.699C252.45 104.135 252.859 103.654 253.373 103.306C253.794 103.04 254.24 102.814 254.703 102.631C255.04 102.524 255.352 102.349 255.62 102.119C256.71 100.984 257.735 99.7875 258.69 98.5363C259.76 97.1372 260.663 95.6189 261.383 94.0117V93.4232C261.383 91.8467 261.649 90.7327 262.181 90.0809C262.395 89.785 262.674 89.5426 262.998 89.373C263.321 89.2034 263.679 89.1111 264.044 89.1034C264.23 89.0875 264.418 89.1113 264.594 89.173C264.771 89.2348 264.932 89.3331 265.068 89.4616C265.279 89.6894 265.413 89.9776 265.451 90.2857C265.443 90.5679 265.393 90.8473 265.303 91.1148C265.192 91.5388 265.142 91.9766 265.155 92.4149C265.197 93.8049 265.488 95.1761 266.014 96.4634C266.584 97.9818 267.156 99.5889 267.729 101.285C268.295 102.96 268.584 104.717 268.584 106.485C268.584 106.961 268.584 107.396 268.527 107.785C268.489 108.163 268.429 108.539 268.348 108.911C269.687 108.52 270.915 107.819 271.931 106.864C273.324 105.532 274.465 103.959 275.299 102.221L276.01 102.733C275.382 104.775 274.265 106.632 272.755 108.143C271.397 109.47 269.664 110.348 267.79 110.656C267.223 112.186 266.121 113.458 264.689 114.239C263.192 115.055 261.511 115.474 259.806 115.457ZM259.392 112.857C260.161 112.861 260.916 112.656 261.577 112.263C262.263 111.857 262.817 111.262 263.174 110.549C261.604 110.216 260.117 109.574 258.798 108.66C257.653 107.898 256.636 106.96 255.783 105.881C255.231 105.997 254.954 106.529 254.954 107.478C254.955 108.784 255.347 110.061 256.08 111.142C256.431 111.695 256.923 112.145 257.505 112.447C258.086 112.748 258.737 112.889 259.392 112.857ZM263.645 108.762C263.732 108.443 263.781 108.115 263.793 107.785C263.793 107.411 263.824 107.125 263.824 106.93C263.784 105.155 263.545 103.39 263.113 101.669C262.683 99.9352 262.249 98.1609 261.813 96.3457C261.106 97.5672 260.279 98.8877 259.33 100.307C258.543 101.524 257.652 102.671 256.669 103.736C257.396 104.908 258.34 105.931 259.448 106.751C260.689 107.713 262.119 108.404 263.645 108.778V108.762Z" fill="white"/>
<path d="M103.089 18.8249C95.5759 36.9434 94.5266 53.982 99.7318 72.6841C89.0963 57.2321 90.5345 33.3351 103.089 18.8249Z" fill="white"/>
<path d="M80.0935 89.4514C60.5883 65.4213 63.2037 21.8446 85.4522 0C69.2994 28.9556 67.5132 58.7727 80.0935 89.4514Z" fill="white"/>
<path d="M96.1849 9.29472C83.5431 33.8623 82.1561 57.5904 92.3924 82.3934C75.9786 64.976 77.601 26.8144 96.1849 9.29472Z" fill="white"/>
<path d="M125.128 73.4416C110.761 67.443 103.821 50.5375 109.855 36.2218C115.89 21.9061 132.78 15.0732 147.161 21.169C161.426 27.2188 168.217 44.3137 162.004 58.5322C157.398 69.1218 146.752 75.5554 135.758 75.5503C132.111 75.5531 128.498 74.8366 125.128 73.4416ZM141.757 33.1508C139.894 32.3712 137.894 31.9717 135.875 31.9759C133.856 31.98 131.857 32.3876 129.998 33.1749C128.138 33.9621 126.455 35.113 125.046 36.56C123.638 38.007 122.533 39.7209 121.796 41.601C120.363 45.2999 120.404 49.4073 121.909 53.0772C123.415 56.747 126.27 59.6996 129.888 61.3267C137.565 64.6689 146.778 60.9275 150.043 53.1375C150.838 51.2844 151.254 49.2908 151.267 47.2743C151.279 45.2577 150.888 43.2591 150.116 41.3963C149.343 39.5335 148.206 37.8442 146.77 36.4281C145.334 35.0119 143.63 33.8976 141.757 33.1508Z" fill="black"/>
<path d="M139.392 38.9139C140.503 39.3557 141.515 40.0158 142.366 40.8551C143.218 41.6944 143.893 42.696 144.351 43.8006C144.809 44.9052 145.041 46.0905 145.033 47.2863C145.025 48.482 144.778 49.6641 144.306 50.7627C143.345 52.9013 141.591 54.5831 139.414 55.4529C137.237 56.3228 134.807 56.3126 132.637 55.4246C130.467 54.5366 128.727 52.8403 127.785 50.6937C126.842 48.547 126.77 46.1181 127.585 43.9196C128.021 42.8079 128.675 41.7945 129.508 40.9387C130.342 40.0829 131.337 39.402 132.437 38.9359C133.536 38.4697 134.718 38.2277 135.912 38.2239C137.107 38.2201 138.29 38.4547 139.392 38.9139Z" fill="white"/>
<path d="M135.871 62.7342C133.785 62.735 131.721 62.3028 129.811 61.4649C126.158 59.8299 123.272 56.8551 121.748 53.1542C120.224 49.4532 120.179 45.3086 121.622 41.5754C122.371 39.6724 123.492 37.9378 124.919 36.4732C126.346 35.0085 128.051 33.8432 129.934 33.0454C131.817 32.2476 133.84 31.8333 135.885 31.8268C137.93 31.8203 139.956 32.2217 141.844 33.0075C143.731 33.7732 145.447 34.9067 146.891 36.3419C148.336 37.7771 149.481 39.4854 150.259 41.3674C151.038 43.2493 151.434 45.2673 151.425 47.3038C151.416 49.3403 151.002 51.3547 150.207 53.2296C149.008 56.0411 147.012 58.4397 144.465 60.1289C141.918 61.8181 138.932 62.7239 135.876 62.7342H135.871ZM135.932 44.6157C135.581 44.6155 135.233 44.6851 134.909 44.8204C134.59 44.9543 134.303 45.1512 134.062 45.3992C133.822 45.6473 133.635 45.9413 133.511 46.2637C133.271 46.9138 133.281 47.63 133.539 48.2731C133.798 48.9163 134.286 49.4405 134.909 49.7441C135.224 49.8771 135.562 49.9457 135.904 49.9457C136.246 49.9457 136.585 49.8771 136.9 49.7441C137.231 49.616 137.534 49.4233 137.79 49.1773C138.047 48.9313 138.252 48.6369 138.394 48.311C138.541 47.9908 138.62 47.6441 138.628 47.2921C138.636 46.9401 138.572 46.5902 138.44 46.2637C138.299 45.9342 138.094 45.6366 137.835 45.3886C137.576 45.1405 137.27 44.9473 136.935 44.8204C136.617 44.6879 136.277 44.6183 135.932 44.6157Z" fill="#990000"/>
<path d="M13.5374 117.402C11.3064 117.412 9.0927 117.011 7.00672 116.22C5.03141 115.499 3.28533 114.261 1.95001 112.637C0.615793 110.917 -0.0741061 108.784 3.67174e-06 106.608C3.67174e-06 104.479 0.472575 102.812 1.41772 101.607C2.32385 100.437 3.55891 99.5633 4.96458 99.0993C6.29707 98.6392 7.69551 98.3989 9.10514 98.3878C7.932 99.6019 6.964 100.999 6.239 102.523C5.62075 103.801 5.28721 105.198 5.26144 106.618C5.25554 107.938 5.60942 109.235 6.28506 110.37C7.03574 111.587 8.11177 112.571 9.39177 113.21C10.9844 113.983 12.7408 114.357 14.5099 114.3C16.2724 114.301 18.0222 114.002 19.6843 113.415C21.2618 112.884 22.6828 111.969 23.8198 110.753C24.9154 109.542 25.4988 107.954 25.4473 106.321C25.482 104.811 24.9898 103.336 24.0552 102.15C23.0435 100.914 21.8327 99.8549 20.4725 99.0174C19.0121 98.0893 17.4767 97.2021 15.8662 96.3559C14.2791 95.5292 12.7411 94.6115 11.2599 93.6074C9.86864 92.6897 8.65486 91.5279 7.67719 90.1782C6.72906 88.8096 6.24145 87.1747 6.28506 85.5104C6.32444 83.7198 6.7376 81.9573 7.49805 80.3358C8.35469 78.4301 9.52412 76.6811 10.9579 75.1613C12.501 73.5124 14.3484 72.1776 16.3985 71.2305C18.6187 70.1954 21.0426 69.6707 23.4922 69.695C26.2219 69.695 28.1326 70.2665 29.2245 71.4096C29.785 72.0114 30.2202 72.7185 30.5049 73.49C30.7896 74.2615 30.918 75.0819 30.8828 75.9034C30.8604 77.491 30.5999 79.0662 30.1099 80.5764C29.6264 82.192 29.0189 83.768 28.293 85.2903C27.6637 86.6077 26.965 87.8908 26.1997 89.1341C25.4565 89.0071 24.7723 88.6489 24.2446 88.1104C23.7887 87.5542 23.5569 86.8478 23.5946 86.1297C23.6193 85.1823 23.792 84.2445 24.1064 83.3505C24.4476 82.3268 24.8417 81.2622 25.2887 80.1567C25.7356 79.0511 26.1314 77.9763 26.4761 76.9322C26.786 76.0475 26.9586 75.1206 26.9879 74.1837C27.0053 73.8798 26.9587 73.5756 26.8511 73.2908C26.7436 73.0061 26.5774 72.747 26.3635 72.5305C25.954 72.1381 25.1164 71.9402 23.8505 71.9368C22.0412 71.9176 20.2552 72.3447 18.6505 73.1805C15.6628 74.743 13.2737 77.2472 11.8536 80.3051C11.2711 81.4946 10.9483 82.7944 10.9067 84.1182C10.8764 85.4586 11.3619 86.7594 12.263 87.7521C13.2836 88.8507 14.4721 89.7802 15.7843 90.5058C17.2242 91.3315 18.7409 92.1589 20.3343 92.9881C21.9171 93.8046 23.4394 94.7334 24.8895 95.7673C26.2887 96.7485 27.483 97.9933 28.4056 99.432C29.3522 100.997 29.8251 102.804 29.767 104.632C29.8039 106.538 29.3227 108.419 28.3749 110.073C27.435 111.665 26.1537 113.028 24.6233 114.065C23.0172 115.159 21.2508 115.996 19.3875 116.547C17.4895 117.116 15.5187 117.404 13.5374 117.402Z" fill="#990000"/>
<path d="M37.1883 114.152C35.414 114.152 34.201 113.57 33.5493 112.407C32.8994 111.242 32.5642 109.928 32.5769 108.594C32.5839 107.282 32.7822 105.979 33.1655 104.724C33.5484 103.428 34.0953 102.186 34.793 101.029C35.3961 99.985 36.1774 99.0548 37.1013 98.2804C37.558 97.8271 38.1284 97.5051 38.7525 97.3484C39.3767 97.1917 40.0315 97.206 40.6482 97.3898C40.9535 97.4492 41.2317 97.6053 41.4415 97.8351C40.9044 98.525 40.4218 99.2557 39.9981 100.021C39.4935 100.911 39.039 101.828 38.6367 102.769C38.2286 103.715 37.9015 104.695 37.6592 105.697C37.4359 106.587 37.3174 107.501 37.306 108.42C37.2798 109.097 37.4334 109.77 37.7513 110.37C37.9144 110.631 38.1476 110.842 38.4245 110.978C38.7013 111.113 39.0107 111.169 39.3174 111.137C40.0647 111.137 40.9604 110.714 42.0045 109.868C43.0853 108.982 44.0856 108.003 44.9934 106.94C43.8117 105.912 42.8805 104.627 42.2706 103.184C41.6796 101.608 41.3981 99.9323 41.4415 98.2496C41.4736 97.2725 41.6853 96.3096 42.0659 95.409C42.4934 94.329 43.185 93.3734 44.0773 92.6298C45.145 91.7975 46.4769 91.3777 47.8289 91.4475C49.5349 91.4475 50.7292 91.9218 51.4116 92.8704C52.1096 93.8519 52.4689 95.0342 52.4352 96.2382C52.3816 97.9346 51.9901 99.6033 51.2836 101.147C50.5238 102.932 49.6039 104.645 48.5352 106.265C49.0511 106.51 49.6173 106.631 50.1883 106.618C50.9155 106.593 51.634 106.453 52.3175 106.203C53.2033 105.895 54.0241 105.424 54.7383 104.816C55.5721 104.105 56.2217 103.202 56.6321 102.186L57.6966 102.953C57.0109 104.736 55.8055 106.271 54.2368 107.36C52.9913 108.221 51.5229 108.703 50.0092 108.747C49.4939 108.746 48.9798 108.696 48.4738 108.599C47.9914 108.51 47.5173 108.382 47.056 108.215C45.7134 109.796 44.164 111.188 42.4497 112.356C40.92 113.477 39.0842 114.103 37.1883 114.152ZM46.5289 105.047C47.4822 103.654 48.2933 102.169 48.9498 100.614C49.5815 99.2392 49.9297 97.7508 49.9734 96.2382C50.0241 95.5521 49.8804 94.8656 49.5588 94.2574C49.4239 94.0543 49.238 93.8902 49.0197 93.7815C48.8015 93.6728 48.5585 93.6234 48.3151 93.6381C47.5679 93.6381 46.8001 94.1704 46.0119 95.235C45.1895 96.4092 44.7743 97.8203 44.8297 99.2528C44.8567 100.272 45.0062 101.284 45.2749 102.267C45.4819 103.275 45.9102 104.225 46.5289 105.047Z" fill="black"/>
<path d="M59.7695 114.034C59.1084 114.033 58.4589 113.861 57.8841 113.534C57.3092 113.208 56.8285 112.738 56.4887 112.171C55.6365 110.907 55.1934 109.412 55.2195 107.887C55.2417 106.57 55.4134 105.26 55.7313 103.982C56.0842 102.493 56.5479 101.032 57.1183 99.6111C57.5967 98.3736 58.1913 97.1843 58.8943 96.059C59.5033 95.1173 60.0663 94.6413 60.5781 94.6413C61.0281 94.6976 61.4609 94.8494 61.8474 95.0866C62.4122 95.3689 62.9301 95.7366 63.3829 96.1768C62.7871 97.1025 62.2635 98.0727 61.8167 99.0788C61.181 100.44 60.6373 101.842 60.1892 103.276C59.7469 104.597 59.5088 105.978 59.4828 107.37C59.4828 107.524 59.4828 107.882 59.5699 108.491C59.6216 109.065 59.7705 109.626 60.01 110.15C60.1129 110.39 60.2876 110.593 60.5103 110.73C60.7329 110.868 60.9926 110.933 61.2537 110.917C62.0871 110.841 62.86 110.45 63.4136 109.822C64.2952 108.959 65.0874 108.009 65.7781 106.986C66.5817 105.825 67.375 104.571 68.1427 103.23C68.9104 101.889 69.6014 100.589 70.19 99.3296C70.7785 98.0705 71.3057 97.0008 71.7254 96.1358C72.1944 96.2003 72.6581 96.2995 73.1124 96.4327C73.6376 96.5763 74.1417 96.7879 74.612 97.0622C74.8113 97.1666 74.9776 97.3243 75.0923 97.5177C75.2071 97.7111 75.2659 97.9326 75.262 98.1575C75.1207 98.6571 74.9322 99.1421 74.699 99.606C74.3254 100.45 73.8904 101.469 73.399 102.651C72.904 103.84 72.4701 105.053 72.099 106.285C71.7542 107.346 71.5646 108.451 71.536 109.566C71.5238 110.069 71.6363 110.566 71.8636 111.015C71.9925 111.23 72.1811 111.403 72.4064 111.512C72.6317 111.622 72.8841 111.665 73.1329 111.634C74.2035 111.547 75.2277 111.159 76.086 110.513C77.4149 109.599 78.6103 108.506 79.638 107.263C80.9376 105.715 82.0302 104.005 82.888 102.175L83.7735 102.887C82.9424 104.955 81.8074 106.887 80.4057 108.619C79.1617 110.19 77.6615 111.54 75.9683 112.611C74.597 113.512 73.0021 114.014 71.362 114.06C70.4385 114.129 69.5235 113.843 68.8029 113.261C68.2207 112.711 67.8191 111.997 67.6514 111.214C67.4539 110.374 67.334 109.517 67.2931 108.655V107.473C66.6177 108.545 65.8883 109.582 65.1077 110.579C64.381 111.52 63.5364 112.363 62.5947 113.087C61.7859 113.711 60.7908 114.045 59.7695 114.034Z" fill="black"/>
<path d="M101.272 113.441C99.7369 113.441 98.5648 113.052 97.7562 112.284C97.3586 111.909 97.0449 111.455 96.8358 110.95C96.6267 110.445 96.527 109.902 96.5432 109.356C96.5537 108.504 96.6934 107.658 96.9578 106.848C97.2341 105.958 97.5105 105.06 97.7869 104.156C98.0528 103.315 98.1925 102.438 98.2015 101.556C98.2015 100.686 97.9916 100.087 97.577 99.7493C97.1694 99.4138 96.6566 99.2326 96.1286 99.2375C94.7886 99.2963 93.5078 99.8068 92.4948 100.686C91.1525 101.752 89.9413 102.974 88.8865 104.325C87.7264 105.782 86.6328 107.299 85.6058 108.875C84.5787 110.452 83.6916 111.871 82.9443 113.133C82.2187 113.138 81.4986 113.008 80.8203 112.75C80.1329 112.477 79.5367 112.016 79.1006 111.419C79.2931 110.804 79.5203 110.201 79.7813 109.612C80.1976 108.609 80.6616 107.415 81.1735 106.029C81.6853 104.632 82.1357 103.163 82.5349 101.623C82.9026 100.253 83.1003 98.8435 83.1235 97.4256C83.4922 97.043 83.9209 96.7231 84.3927 96.4787C84.9451 96.1706 85.567 96.0085 86.1995 96.0079C87.5643 96.0079 88.2467 96.5982 88.2467 97.7788C88.2197 98.4864 88.1306 99.1903 87.9806 99.8824C87.8014 100.809 87.5558 101.858 87.2435 103.04C88.2695 101.66 89.3951 100.356 90.6113 99.1402C91.7478 97.9848 93.0295 96.9818 94.4243 96.1563C95.6275 95.4205 97.0062 95.021 98.4164 94.9996C100.122 94.9996 101.373 95.5711 102.168 96.7142C102.963 97.8164 103.388 99.1426 103.381 100.502C103.388 101.632 103.189 102.754 102.792 103.813C102.398 104.837 102.009 105.804 101.636 106.71C101.277 107.55 101.087 108.453 101.078 109.366C101.051 109.607 101.076 109.85 101.152 110.08C101.228 110.31 101.353 110.52 101.518 110.697C101.785 110.942 102.133 111.079 102.496 111.081C103.444 111.081 104.429 110.629 105.449 109.725C106.57 108.703 107.554 107.54 108.376 106.265C109.279 104.906 110.1 103.494 110.833 102.037L111.857 102.866C111.075 104.708 110.134 106.479 109.047 108.159C108.115 109.63 106.936 110.929 105.561 111.997C104.332 112.943 102.823 113.451 101.272 113.441Z" fill="black"/>
<path d="M113.392 114.034C112.6 114.022 111.821 113.83 111.114 113.471C110.321 113.074 109.647 112.471 109.164 111.726C108.6 110.825 108.322 109.774 108.366 108.711C108.409 107.208 108.73 105.726 109.313 104.34C109.986 102.634 110.844 101.007 111.872 99.4883C112.958 97.8701 114.227 96.3828 115.654 95.0559C117.022 93.7635 118.564 92.6695 120.235 91.8058C121.747 91.0025 123.431 90.5758 125.143 90.562C125.88 90.5241 126.613 90.6775 127.272 91.0073C127.524 91.1516 127.73 91.3642 127.866 91.6205C128.002 91.8769 128.062 92.1665 128.04 92.4558C128.033 92.6872 127.994 92.9164 127.922 93.1365C127.814 93.4266 127.602 93.6669 127.329 93.8121C127.126 93.5461 126.833 93.364 126.505 93.3003C126.098 93.201 125.68 93.1511 125.261 93.1519C123.941 93.1592 122.649 93.5388 121.535 94.2472C120.313 95.0101 119.217 95.958 118.285 97.0571C117.303 98.2033 116.445 99.4506 115.726 100.778C115.044 102.014 114.481 103.311 114.042 104.653C113.684 105.692 113.486 106.779 113.453 107.877C113.42 108.512 113.585 109.141 113.924 109.679C114.083 109.904 114.296 110.084 114.545 110.204C114.793 110.323 115.067 110.376 115.342 110.359C116.407 110.359 117.681 109.735 119.155 108.496C120.917 106.925 122.45 105.114 123.71 103.117C125.418 100.469 126.836 97.6446 127.938 94.6925C128.804 92.4473 129.71 90.1509 130.655 87.8033C131.601 85.4558 132.547 83.1986 133.496 81.0319C134.438 78.8686 135.373 76.9373 136.301 75.238C137.053 73.8044 137.944 72.4483 138.962 71.1895C139.812 70.1659 140.59 69.6541 141.296 69.6541C141.514 69.6558 141.728 69.7021 141.927 69.7901C142.126 69.8782 142.305 70.0061 142.453 70.1659C142.62 70.3313 142.752 70.5293 142.84 70.7476C142.928 70.9659 142.97 71.1999 142.965 71.4352C142.965 72.1176 142.639 73.1925 141.987 74.6597C141.335 76.1269 140.508 77.8893 139.505 79.9468C138.502 81.9941 137.418 84.212 136.255 86.6005C135.091 88.989 134.006 91.4322 133 93.9299C132.027 96.3421 131.198 98.81 130.517 101.321C129.896 103.544 129.569 105.84 129.545 108.148C129.497 108.801 129.587 109.457 129.811 110.073C129.896 110.239 130.029 110.376 130.192 110.467C130.355 110.558 130.541 110.599 130.727 110.585C131.77 110.522 132.773 110.167 133.624 109.561C134.854 108.737 135.951 107.729 136.874 106.572C138.067 105.113 139.079 103.514 139.889 101.812L141.015 102.759C140.203 104.826 139.086 106.759 137.703 108.496C136.5 110.027 135.04 111.336 133.389 112.366C132.027 113.24 130.451 113.722 128.833 113.758C127.216 113.758 126.094 113.246 125.466 112.222C124.82 111.141 124.491 109.899 124.519 108.64C124.518 107.995 124.568 107.352 124.667 106.715C124.766 106.067 124.874 105.427 124.99 104.796C123.835 106.488 122.541 108.08 121.12 109.556C119.933 110.812 118.591 111.915 117.128 112.837C116.017 113.573 114.724 113.988 113.392 114.034Z" fill="black"/>
<path d="M159.829 117.023C157.428 117.023 155.611 116.629 154.393 115.841C153.175 115.053 152.541 113.753 152.5 111.941C152.5 111.547 152.715 111.347 153.15 111.347C153.7 111.379 154.245 111.468 154.777 111.613C156.154 111.841 157.549 111.93 158.943 111.879C162.168 111.909 165.384 111.541 168.519 110.784C171.178 110.157 173.736 109.163 176.12 107.831C178.046 106.775 179.743 105.349 181.115 103.634C182.234 102.252 182.858 100.534 182.886 98.7563C182.918 98.0784 182.812 97.4011 182.573 96.7657C182.335 96.1303 181.969 95.5502 181.499 95.061C180.464 94.07 179.208 93.3401 177.834 92.9318C176.22 92.4205 174.553 92.0925 172.865 91.9542C171.073 91.8006 169.308 91.7188 167.578 91.7188C166.825 91.7188 166.078 91.7188 165.331 91.7495C164.584 91.7802 163.872 91.7802 163.202 91.7802C162.332 94.7726 161.479 97.8658 160.643 101.06C159.807 104.253 158.94 107.387 158.043 110.462C156.944 110.484 155.867 110.152 154.972 109.515C154.581 109.269 154.258 108.93 154.031 108.527C153.804 108.125 153.68 107.673 153.672 107.212C153.687 106.741 153.755 106.274 153.876 105.819C154.015 105.251 154.224 104.571 154.501 103.772C154.777 102.974 155.141 101.781 155.714 100.046C156.287 98.311 156.963 96.2638 157.761 93.9042C158.56 91.5447 159.424 89.047 160.392 86.4214C161.359 83.7957 162.362 81.2315 163.406 78.7082C164.45 76.1849 165.459 73.9431 166.482 71.9317C165.142 72.2131 163.834 72.6298 162.577 73.1754C161.748 73.5451 160.94 73.9604 160.156 74.4191C159.75 74.6963 159.283 74.8718 158.795 74.931C158.455 74.8874 158.136 74.743 157.879 74.5164C157.5 74.244 157.156 73.926 156.855 73.5695C156.602 73.3145 156.445 72.9801 156.41 72.6226C158.577 71.744 160.788 70.9753 163.033 70.3194C165.729 69.59 168.516 69.2454 171.309 69.2958C172.87 69.3073 174.429 69.4167 175.976 69.6234C177.646 69.8325 179.278 70.2699 180.828 70.9234C182.327 71.5465 183.64 72.5441 184.641 73.8203C185.645 75.0999 186.146 76.8059 186.146 78.9385C186.185 80.4787 185.809 82.001 185.056 83.3453C184.309 84.5993 183.313 85.6863 182.128 86.5391C180.885 87.4346 179.534 88.1689 178.106 88.7246C176.699 89.2802 175.258 89.7435 173.791 90.1116C175.896 90.3396 177.962 90.8473 179.933 91.6215C181.363 92.1862 182.683 92.9969 183.833 94.0168C184.701 94.8014 185.397 95.7561 185.88 96.8216C186.277 97.706 186.49 98.6622 186.504 99.6315C186.533 101.858 185.893 104.042 184.667 105.901C183.389 107.812 181.754 109.458 179.851 110.748C177.807 112.154 175.605 113.313 173.289 114.203C170.98 115.108 168.596 115.81 166.165 116.302C164.082 116.748 161.959 116.99 159.829 117.023ZM163.79 89.5333C165.976 89.4542 168.151 89.1974 170.295 88.7655C172.291 88.3757 174.229 87.7288 176.058 86.8411C177.666 86.0764 179.069 84.9415 180.153 83.5296C181.21 82.0624 181.751 80.2854 181.688 78.4779C181.688 76.5841 181.177 75.1255 180.153 74.1018C179.04 73.0295 177.647 72.2917 176.135 71.9726C174.39 71.5676 172.604 71.3684 170.812 71.3789H170.577C169.174 74.1664 167.95 77.0401 166.912 79.9827C165.803 83.0945 164.756 86.2849 163.77 89.5537L163.79 89.5333Z" fill="#990000"/>
<path d="M191.321 128.457C190.329 128.454 189.365 128.131 188.572 127.536C187.723 126.927 187.303 125.95 187.303 124.614C187.291 123.388 187.685 122.193 188.424 121.215C189.238 120.143 190.216 119.205 191.321 118.436C192.531 117.57 193.805 116.798 195.134 116.128C196.498 115.445 197.809 114.805 199.064 114.208C199.498 113.062 199.98 111.613 200.513 109.863C201.045 108.112 201.509 106.487 201.905 104.985C200.748 106.603 199.44 108.108 198 109.479C196.782 110.711 195.126 111.412 193.393 111.429C192.625 111.417 191.866 111.266 191.152 110.984C190.353 110.681 189.663 110.146 189.171 109.448C188.599 108.583 188.32 107.557 188.373 106.521C188.406 105.261 188.593 104.009 188.93 102.795C189.306 101.336 189.781 99.9043 190.353 98.5107C190.831 97.2878 191.435 96.118 192.155 95.02C192.784 94.0936 193.337 93.633 193.808 93.633C194.162 93.6618 194.508 93.7519 194.832 93.8992C195.301 94.0844 195.748 94.3231 196.162 94.6106C196.539 94.8336 196.831 95.1758 196.991 95.583C196.537 96.2285 196.141 96.9137 195.809 97.6303C195.342 98.5916 194.927 99.5775 194.566 100.584C194.187 101.62 193.862 102.676 193.593 103.747C193.359 104.615 193.23 105.509 193.209 106.408C193.196 106.941 193.318 107.47 193.562 107.944C193.704 108.17 193.908 108.351 194.149 108.466C194.39 108.582 194.659 108.626 194.924 108.594C195.913 108.547 196.858 108.173 197.611 107.529C198.625 106.737 199.54 105.824 200.334 104.811C201.198 103.737 201.997 102.612 202.729 101.443C202.833 101.015 202.912 100.581 202.964 100.143C203.048 99.5199 203.187 98.905 203.379 98.3059C203.577 97.6257 203.927 96.9993 204.403 96.4736C204.671 96.1911 204.998 95.9708 205.36 95.8284C205.723 95.6861 206.112 95.625 206.501 95.6496C206.797 95.6468 207.093 95.6656 207.386 95.7059C207.663 95.7468 207.995 95.8031 208.41 95.885C208.314 97.0554 208.107 98.214 207.791 99.3449C207.374 101.051 206.834 103.03 206.168 105.282C205.503 107.534 204.754 109.781 203.921 112.023C205.815 111.2 207.562 110.073 209.091 108.686C210.886 107.13 212.334 104.912 213.436 102.032L214.46 102.861C213.916 104.739 213 106.488 211.768 108.005C210.6 109.43 209.237 110.682 207.719 111.726C206.286 112.723 204.761 113.58 203.164 114.285C202.163 116.72 201.009 119.089 199.709 121.379C198.664 123.292 197.338 125.036 195.773 126.553C194.594 127.744 192.996 128.428 191.321 128.457ZM190.732 126.267C191.479 126.267 192.523 125.479 193.864 123.902C195.205 122.326 196.57 119.961 197.959 116.808C196.643 117.467 195.37 118.208 194.146 119.025C192.967 119.789 191.884 120.693 190.921 121.717C190.134 122.481 189.669 123.518 189.621 124.614C189.622 125.003 189.713 125.387 189.888 125.735C189.96 125.897 190.079 126.034 190.229 126.128C190.38 126.223 190.554 126.271 190.732 126.267Z" fill="black"/>
<path d="M217.51 114.623C216.744 114.657 215.978 114.539 215.258 114.275C214.538 114.012 213.877 113.608 213.313 113.087C212.249 112.064 211.716 110.508 211.716 108.42C211.778 106.38 212.086 104.356 212.632 102.39C213.283 99.8675 214.064 97.3801 214.971 94.9381C214.65 94.8508 214.323 94.7808 213.994 94.7283C213.616 94.6705 213.248 94.562 212.899 94.4058V92.5735C213.528 92.6503 214.055 92.7117 214.465 92.7475L215.739 92.8704C216.562 90.7821 217.457 88.7621 218.426 86.8104C219.395 84.8586 220.361 83.1133 221.323 81.5744C222.112 80.2704 223.035 79.0525 224.077 77.9405C224.943 77.0533 225.711 76.6097 226.38 76.6097C226.795 76.618 227.193 76.7761 227.501 77.055C227.678 77.2126 227.817 77.4093 227.906 77.6295C227.995 77.8497 228.031 78.0876 228.012 78.3244C228.012 79.1126 227.608 80.2386 226.805 81.6921C226.001 83.1457 224.998 84.8603 223.816 86.8104C222.633 88.7604 221.492 90.8384 220.386 93.0444H222.219C223.956 93.0444 225.523 93.0154 226.922 92.9574C228.321 92.8994 229.749 92.7919 231.206 92.6349V94.585C229.04 94.7795 227.049 94.9364 225.233 95.0559C223.421 95.1736 221.686 95.2555 220.033 95.2913H219.322C218.494 97.2307 217.775 99.2145 217.167 101.234C216.571 103.158 216.262 105.161 216.251 107.176C216.251 108.793 216.507 109.936 217.019 110.605C217.311 110.957 217.683 111.234 218.104 111.413C218.526 111.591 218.984 111.665 219.44 111.629C221.412 111.629 223.432 110.733 225.499 108.942C227.767 106.888 229.606 104.406 230.909 101.638L231.738 102.232C230.748 104.497 229.466 106.624 227.925 108.558C226.55 110.318 224.881 111.828 222.992 113.021C221.348 114.053 219.45 114.608 217.51 114.623Z" fill="black"/>
<path d="M236.017 114.5C233.492 114.5 231.551 113.818 230.193 112.453C229.52 111.785 228.991 110.986 228.639 110.106C228.287 109.225 228.119 108.282 228.146 107.335C228.189 105.418 228.643 103.533 229.476 101.807C230.396 99.8081 231.603 97.9545 233.059 96.3047C234.48 94.6575 236.159 93.2506 238.029 92.1385C239.663 91.1252 241.541 90.5734 243.464 90.5416C244.494 90.5429 245.504 90.8185 246.392 91.34C247.32 91.8723 247.782 92.9267 247.779 94.5031C247.78 96.0015 247.327 97.4651 246.479 98.7001C245.545 100.071 244.362 101.255 242.993 102.191C241.501 103.233 239.881 104.077 238.172 104.704C236.469 105.343 234.693 105.769 232.885 105.973C232.843 106.141 232.812 106.312 232.793 106.485C232.768 106.771 232.758 107.058 232.762 107.345C232.775 107.687 232.806 108.029 232.854 108.368C232.932 108.916 233.105 109.446 233.366 109.935C233.679 110.525 234.15 111.016 234.727 111.352C235.522 111.788 236.422 111.994 237.327 111.946C239.084 111.918 240.805 111.439 242.323 110.554C244.076 109.567 245.671 108.322 247.052 106.859C248.524 105.33 249.769 103.598 250.747 101.715L251.929 102.662C250.922 104.946 249.538 107.045 247.835 108.87C246.238 110.588 244.338 111.997 242.231 113.026C240.299 113.985 238.174 114.489 236.017 114.5ZM233.53 103.803C234.722 103.632 235.88 103.273 236.959 102.738C238.25 102.126 239.469 101.373 240.593 100.491C241.695 99.6476 242.662 98.6395 243.459 97.5024C244.164 96.5513 244.557 95.4052 244.585 94.2216C244.618 93.9076 244.534 93.5923 244.35 93.3361C244.133 93.1587 243.855 93.074 243.577 93.1007C242.555 93.1361 241.568 93.4766 240.741 94.0783C239.67 94.8041 238.697 95.6641 237.844 96.6374C236.877 97.7017 236.02 98.8609 235.285 100.097C234.581 101.273 233.993 102.514 233.53 103.803Z" fill="black"/>
<path d="M256.234 114.915C254.562 114.993 252.906 114.573 251.474 113.707C250.332 112.963 249.441 111.893 248.915 110.636C248.41 109.428 248.149 108.132 248.147 106.823C248.101 105.911 248.262 105.001 248.618 104.161C248.877 103.598 249.286 103.116 249.8 102.769C250.221 102.502 250.667 102.275 251.131 102.093C251.467 101.985 251.778 101.811 252.047 101.582C253.136 100.445 254.161 99.2488 255.118 97.9988C256.185 96.5985 257.089 95.0804 257.81 93.4743V92.8653C257.81 91.2888 258.075 90.1748 258.603 89.523C258.818 89.2274 259.097 88.9852 259.42 88.8156C259.744 88.646 260.102 88.5536 260.467 88.5455C260.653 88.5293 260.84 88.5529 261.017 88.6147C261.193 88.6764 261.355 88.775 261.49 88.9037C261.705 89.1288 261.84 89.4184 261.874 89.7278C261.868 90.0098 261.82 90.2893 261.731 90.5569C261.617 90.9805 261.567 91.4187 261.582 91.857C261.625 93.2481 261.915 94.6206 262.437 95.9106C263.01 97.4256 263.582 99.031 264.152 100.727C264.722 102.403 265.012 104.162 265.011 105.932C265.013 106.366 264.993 106.8 264.95 107.232C264.913 107.609 264.855 107.983 264.776 108.353C266.114 107.962 267.342 107.26 268.359 106.306C269.753 104.974 270.896 103.401 271.732 101.664L272.438 102.175C271.814 104.217 270.698 106.075 269.188 107.585C267.829 108.912 266.096 109.789 264.223 110.098C263.652 111.627 262.549 112.899 261.117 113.681C259.621 114.503 257.94 114.927 256.234 114.915ZM255.819 112.315C256.59 112.319 257.347 112.114 258.01 111.721C258.696 111.316 259.249 110.72 259.602 110.006C258.034 109.673 256.548 109.031 255.231 108.118C254.085 107.357 253.067 106.419 252.216 105.338C251.663 105.454 251.387 105.987 251.387 106.935C251.389 108.241 251.779 109.517 252.508 110.6C252.859 111.153 253.351 111.602 253.933 111.903C254.514 112.205 255.165 112.346 255.819 112.315ZM260.078 108.22C260.162 107.9 260.212 107.573 260.226 107.242C260.226 106.869 260.257 106.587 260.257 106.388C260.214 104.623 259.976 102.869 259.545 101.157C259.112 99.42 258.679 97.6457 258.245 95.8338C257.532 97.0554 256.705 98.3759 255.763 99.7954C254.975 101.012 254.085 102.16 253.102 103.225C253.829 104.396 254.772 105.419 255.881 106.239C257.124 107.191 258.554 107.871 260.078 108.235V108.22Z" fill="black"/>
<path d="M134.965 76.4869C134.965 76.4869 138.179 68.4462 140.595 67.6426C143.011 66.839 136.664 73.4057 135.415 76.9527C134.167 80.4996 134.965 76.4869 134.965 76.4869Z" fill="#990000"/>
</g>
<defs>
<clipPath id="clip0_2_32">
<rect width="276" height="129" fill="white"/>
</clipPath>
</defs>
</svg>
