<svg width="29" height="24" viewBox="0 0 29 24" fill="none" xmlns="http://www.w3.org/2000/svg">
<path d="M14.315 0.654999H25.815C26.985 0.654999 27.725 1.155 28.085 2.1C28.2707 2.58201 28.3081 3.10855 28.1922 3.61195C28.0764 4.11535 27.8127 4.57262 27.435 4.925C26.979 5.3278 26.3825 5.53443 25.775 5.5C23.565 5.5 21.355 5.5 19.15 5.5C13.705 5.5 8.26001 5.5 2.81501 5.5C0.580006 5.5 -0.0249931 3.34 0.555007 2.05C0.725192 1.61617 1.02933 1.24794 1.42319 0.998852C1.81705 0.749765 2.2801 0.632812 2.74501 0.664999C6.60501 0.659999 10.46 0.654999 14.315 0.654999Z" fill="#9F9F9F"/>
<path d="M14.28 23.33C10.465 23.33 6.645 23.285 2.83 23.33C2.44812 23.3443 2.06832 23.2674 1.72208 23.1057C1.37584 22.944 1.07312 22.7021 0.83901 22.4C0.6049 22.098 0.446139 21.7445 0.37588 21.3688C0.305621 20.9932 0.325888 20.6062 0.435002 20.24C0.539242 19.7629 0.798233 19.3336 1.17169 19.0189C1.54515 18.7043 2.01213 18.5218 2.5 18.5H2.745C10.475 18.5 18.2083 18.5 25.945 18.5C26.4322 18.4804 26.9119 18.6243 27.3078 18.9088C27.7038 19.1933 27.9932 19.602 28.13 20.07C28.2809 20.4344 28.3375 20.8309 28.2945 21.223C28.2515 21.615 28.1103 21.9898 27.884 22.3128C27.6577 22.6358 27.3536 22.8966 26.9998 23.0708C26.646 23.2451 26.254 23.3274 25.86 23.31C22 23.335 18.135 23.33 14.28 23.33Z" fill="#9F9F9F"/>
<path d="M14.285 14.405C10.45 14.405 6.615 14.37 2.785 14.405C0.939999 14.405 -0.0300009 12.68 0.509999 11.09C0.656044 10.6279 0.953593 10.2285 1.35459 9.95634C1.75559 9.68417 2.23662 9.55511 2.72 9.59001C5.22 9.59001 7.72 9.59001 10.22 9.59001H25.85C26.3372 9.55762 26.8215 9.68713 27.2275 9.9584C27.6335 10.2297 27.9385 10.6275 28.095 11.09C28.2808 11.572 28.3153 12.0991 28.1938 12.6012C28.0723 13.1033 27.8006 13.5563 27.415 13.9C26.9395 14.2752 26.3383 14.4542 25.735 14.4C21.9117 14.3967 18.095 14.3983 14.285 14.405Z" fill="#9F9F9F"/>
</svg>
