<svg width="29" height="24" viewBox="0 0 29 24" fill="none" xmlns="http://www.w3.org/2000/svg">
<path d="M20.035 3.09501C22.655 3.09501 25.275 3.09501 27.895 3.09501C28.895 3.09501 29.17 3.44001 28.895 4.39001C28.11 7.25001 27.3 10.105 26.54 12.97C26.5223 13.1024 26.4783 13.2299 26.4106 13.345C26.3428 13.4601 26.2526 13.5605 26.1455 13.6402C26.0383 13.7199 25.9162 13.7773 25.7864 13.8091C25.6567 13.8408 25.5219 13.8462 25.39 13.825C21.835 13.825 18.275 13.79 14.72 13.825C14.5679 13.8482 14.4127 13.8405 14.2637 13.8024C14.1147 13.7643 13.9749 13.6966 13.8526 13.6032C13.7303 13.5099 13.6281 13.3929 13.5521 13.2592C13.476 13.1255 13.4277 12.9778 13.41 12.825C12.68 10.02 11.885 7.23501 11.12 4.44001C10.85 3.44001 11.12 3.11001 12.165 3.11001C14.795 3.09001 17.415 3.09501 20.035 3.09501Z" fill="#9F9F9F"/>
<path d="M19.55 17.5C17.12 17.5 14.685 17.475 12.25 17.5C12.0958 17.5247 11.9381 17.5183 11.7864 17.4812C11.6347 17.444 11.4919 17.3769 11.3666 17.2837C11.2412 17.1905 11.1358 17.0731 11.0565 16.9385C10.9772 16.8039 10.9257 16.6548 10.905 16.5C9.57 11.825 8.19499 7.16499 6.86999 2.49999C6.85849 2.38872 6.82363 2.28114 6.7677 2.18426C6.71177 2.08739 6.63602 2.00341 6.54541 1.93782C6.4548 1.87222 6.35137 1.82648 6.24188 1.80359C6.13239 1.78071 6.0193 1.78118 5.91 1.80499C4.605 1.84499 3.29001 1.80499 1.98001 1.80499C1.42501 1.80499 0.980011 1.65999 0.980011 1.02999C0.980011 0.399991 1.48001 0.259992 2.01001 0.264992C3.65001 0.264992 5.28499 0.294992 6.92499 0.264992C7.06294 0.247511 7.20298 0.257474 7.33706 0.294307C7.47115 0.33114 7.59663 0.394117 7.7063 0.479615C7.81596 0.565114 7.90765 0.671448 7.97607 0.792503C8.04449 0.913557 8.08832 1.04694 8.10501 1.18499C9.45001 5.87999 10.83 10.56 12.165 15.26C12.1726 15.372 12.2034 15.4813 12.2557 15.5807C12.308 15.68 12.3805 15.7674 12.4686 15.8371C12.5567 15.9068 12.6583 15.9573 12.7671 15.9853C12.8758 16.0134 12.9892 16.0184 13.1 16C17.71 15.975 22.32 16 26.93 16C27.1856 15.9895 27.4414 16.0147 27.69 16.075C27.826 16.1182 27.9437 16.2056 28.0243 16.3234C28.105 16.4412 28.1439 16.5825 28.135 16.725C28.1537 16.8784 28.1193 17.0336 28.0374 17.1646C27.9555 17.2957 27.8311 17.3946 27.685 17.445C27.4604 17.4953 27.2298 17.5138 27 17.5H19.55Z" fill="#9F9F9F"/>
<path d="M21.69 21.5C21.6939 21.065 21.8265 20.6408 22.0709 20.281C22.3154 19.9211 22.6608 19.6416 23.0638 19.4776C23.4667 19.3137 23.9092 19.2725 24.3355 19.3595C24.7617 19.4464 25.1528 19.6575 25.4594 19.9661C25.7659 20.2748 25.9743 20.6672 26.0584 21.0941C26.1424 21.5209 26.0983 21.9631 25.9316 22.3649C25.7649 22.7667 25.4831 23.1103 25.1216 23.3523C24.76 23.5943 24.335 23.724 23.9 23.725C23.6079 23.727 23.3184 23.6707 23.0484 23.5595C22.7784 23.4482 22.5333 23.2841 22.3274 23.0769C22.1216 22.8697 21.9592 22.6235 21.8498 22.3527C21.7403 22.0819 21.686 21.792 21.69 21.5V21.5Z" fill="#9F9F9F"/>
<path d="M16.67 21.5C16.6641 21.9358 16.5295 22.3601 16.283 22.7195C16.0366 23.079 15.6895 23.3576 15.2852 23.5203C14.8808 23.6829 14.4374 23.7225 14.0107 23.6338C13.584 23.5452 13.1931 23.3324 12.887 23.0221C12.5809 22.7119 12.3734 22.3181 12.2905 21.8902C12.2077 21.4624 12.2532 21.0196 12.4213 20.6175C12.5894 20.2154 12.8726 19.872 13.2354 19.6305C13.5981 19.3889 14.0242 19.26 14.46 19.26C15.0493 19.2666 15.6121 19.5057 16.026 19.9252C16.4399 20.3447 16.6714 20.9107 16.67 21.5V21.5Z" fill="#9F9F9F"/>
</svg>
